<?xml version="1.0" encoding="utf-8" standalone="no"?>
<!DOCTYPE svg PUBLIC "-//W3C//DTD SVG 1.1//EN"
  "http://www.w3.org/Graphics/SVG/1.1/DTD/svg11.dtd">
<svg xmlns:xlink="http://www.w3.org/1999/xlink" width="684pt" height="302.4pt" viewBox="0 0 684 302.4" xmlns="http://www.w3.org/2000/svg" version="1.1">
 <metadata>
  <rdf:RDF xmlns:dc="http://purl.org/dc/elements/1.1/" xmlns:cc="http://creativecommons.org/ns#" xmlns:rdf="http://www.w3.org/1999/02/22-rdf-syntax-ns#">
   <cc:Work>
    <dc:type rdf:resource="http://purl.org/dc/dcmitype/StillImage"/>
    <dc:date>2026-07-15T07:00:32.225078</dc:date>
    <dc:format>image/svg+xml</dc:format>
    <dc:creator>
     <cc:Agent>
      <dc:title>Matplotlib v3.10.8, https://matplotlib.org/</dc:title>
     </cc:Agent>
    </dc:creator>
   </cc:Work>
  </rdf:RDF>
 </metadata>
 <defs>
  <style type="text/css">*{stroke-linejoin: round; stroke-linecap: butt}</style>
 </defs>
 <g id="figure_1">
  <g id="patch_1">
   <path d="M 0 302.4 
L 684 302.4 
L 684 0 
L 0 0 
z
" style="fill: #ffffff"/>
  </g>
  <g id="axes_1">
   <g id="patch_2">
    <path d="M 237.49 257.128 
L 669.195489 257.128 
L 669.195489 26.88 
L 237.49 26.88 
z
" style="fill: #ffffff"/>
   </g>
   <g id="patch_3">
    <path d="M -238970.721558 37.345818 
L 649.572512 37.345818 
L 649.572512 72.231879 
L -238970.721558 72.231879 
z
" clip-path="url(#p3c1171a4ed)" style="fill: #64748b"/>
   </g>
   <g id="patch_4">
    <path d="M -238970.721558 80.953394 
L 390.981543 80.953394 
L 390.981543 115.839455 
L -238970.721558 115.839455 
z
" clip-path="url(#p3c1171a4ed)" style="fill: #94a3b8"/>
   </g>
   <g id="patch_5">
    <path d="M -238970.721558 124.56097 
L 420.071289 124.56097 
L 420.071289 159.44703 
L -238970.721558 159.44703 
z
" clip-path="url(#p3c1171a4ed)" style="fill: #cfe0c3"/>
   </g>
   <g id="patch_6">
    <path d="M -238970.721558 168.168545 
L 424.392606 168.168545 
L 424.392606 203.054606 
L -238970.721558 203.054606 
z
" clip-path="url(#p3c1171a4ed)" style="fill: #6b9457"/>
   </g>
   <g id="patch_7">
    <path d="M -238970.721558 211.776121 
L 257.112977 211.776121 
L 257.112977 246.662182 
L -238970.721558 246.662182 
z
" clip-path="url(#p3c1171a4ed)" style="fill: #4d7f37"/>
   </g>
   <g id="matplotlib.axis_1">
    <g id="xtick_1">
     <g id="line2d_1">
      <path d="M 470.459249 257.128 
L 470.459249 26.88 
" clip-path="url(#p3c1171a4ed)" style="fill: none; stroke: #b0b0b0; stroke-opacity: 0.3; stroke-width: 0.8; stroke-linecap: square"/>
     </g>
     <g id="line2d_2">
      <defs>
       <path id="m7e6e226493" d="M 0 0 
L 0 3.5 
" style="stroke: #000000; stroke-width: 0.8"/>
      </defs>
      <g>
       <use xlink:href="#m7e6e226493" x="470.459249" y="257.128" style="stroke: #000000; stroke-width: 0.8"/>
      </g>
     </g>
     <g id="text_1">
      <!-- $\mathdefault{10^{0}}$ -->
      <g transform="translate(461.659249 271.726438) scale(0.1 -0.1)">
       <defs>
        <path id="DejaVuSans-31" d="M 794 531 
L 1825 531 
L 1825 4091 
L 703 3866 
L 703 4441 
L 1819 4666 
L 2450 4666 
L 2450 531 
L 3481 531 
L 3481 0 
L 794 0 
L 794 531 
z
" transform="scale(0.015625)"/>
        <path id="DejaVuSans-30" d="M 2034 4250 
Q 1547 4250 1301 3770 
Q 1056 3291 1056 2328 
Q 1056 1369 1301 889 
Q 1547 409 2034 409 
Q 2525 409 2770 889 
Q 3016 1369 3016 2328 
Q 3016 3291 2770 3770 
Q 2525 4250 2034 4250 
z
M 2034 4750 
Q 2819 4750 3233 4129 
Q 3647 3509 3647 2328 
Q 3647 1150 3233 529 
Q 2819 -91 2034 -91 
Q 1250 -91 836 529 
Q 422 1150 422 2328 
Q 422 3509 836 4129 
Q 1250 4750 2034 4750 
z
" transform="scale(0.015625)"/>
       </defs>
       <use xlink:href="#DejaVuSans-31" transform="translate(0 0.765625)"/>
       <use xlink:href="#DejaVuSans-30" transform="translate(63.623047 0.765625)"/>
       <use xlink:href="#DejaVuSans-30" transform="translate(128.203125 39.046875) scale(0.7)"/>
      </g>
     </g>
    </g>
    <g id="xtick_2">
     <g id="line2d_3">
      <path d="M 303.097045 257.128 
L 303.097045 26.88 
" clip-path="url(#p3c1171a4ed)" style="fill: none; stroke: #b0b0b0; stroke-opacity: 0.3; stroke-width: 0.8; stroke-linecap: square"/>
     </g>
     <g id="line2d_4">
      <defs>
       <path id="m885d881e5a" d="M 0 0 
L 0 2 
" style="stroke: #000000; stroke-width: 0.6"/>
      </defs>
      <g>
       <use xlink:href="#m885d881e5a" x="303.097045" y="257.128" style="stroke: #000000; stroke-width: 0.6"/>
      </g>
     </g>
    </g>
    <g id="xtick_3">
     <g id="line2d_5">
      <path d="M 345.260544 257.128 
L 345.260544 26.88 
" clip-path="url(#p3c1171a4ed)" style="fill: none; stroke: #b0b0b0; stroke-opacity: 0.3; stroke-width: 0.8; stroke-linecap: square"/>
     </g>
     <g id="line2d_6">
      <g>
       <use xlink:href="#m885d881e5a" x="345.260544" y="257.128" style="stroke: #000000; stroke-width: 0.6"/>
      </g>
     </g>
    </g>
    <g id="xtick_4">
     <g id="line2d_7">
      <path d="M 375.176023 257.128 
L 375.176023 26.88 
" clip-path="url(#p3c1171a4ed)" style="fill: none; stroke: #b0b0b0; stroke-opacity: 0.3; stroke-width: 0.8; stroke-linecap: square"/>
     </g>
     <g id="line2d_8">
      <g>
       <use xlink:href="#m885d881e5a" x="375.176023" y="257.128" style="stroke: #000000; stroke-width: 0.6"/>
      </g>
     </g>
    </g>
    <g id="xtick_5">
     <g id="line2d_9">
      <path d="M 398.380271 257.128 
L 398.380271 26.88 
" clip-path="url(#p3c1171a4ed)" style="fill: none; stroke: #b0b0b0; stroke-opacity: 0.3; stroke-width: 0.8; stroke-linecap: square"/>
     </g>
     <g id="line2d_10">
      <g>
       <use xlink:href="#m885d881e5a" x="398.380271" y="257.128" style="stroke: #000000; stroke-width: 0.6"/>
      </g>
     </g>
    </g>
    <g id="xtick_6">
     <g id="line2d_11">
      <path d="M 417.339522 257.128 
L 417.339522 26.88 
" clip-path="url(#p3c1171a4ed)" style="fill: none; stroke: #b0b0b0; stroke-opacity: 0.3; stroke-width: 0.8; stroke-linecap: square"/>
     </g>
     <g id="line2d_12">
      <g>
       <use xlink:href="#m885d881e5a" x="417.339522" y="257.128" style="stroke: #000000; stroke-width: 0.6"/>
      </g>
     </g>
    </g>
    <g id="xtick_7">
     <g id="line2d_13">
      <path d="M 433.36934 257.128 
L 433.36934 26.88 
" clip-path="url(#p3c1171a4ed)" style="fill: none; stroke: #b0b0b0; stroke-opacity: 0.3; stroke-width: 0.8; stroke-linecap: square"/>
     </g>
     <g id="line2d_14">
      <g>
       <use xlink:href="#m885d881e5a" x="433.36934" y="257.128" style="stroke: #000000; stroke-width: 0.6"/>
      </g>
     </g>
    </g>
    <g id="xtick_8">
     <g id="line2d_15">
      <path d="M 447.255001 257.128 
L 447.255001 26.88 
" clip-path="url(#p3c1171a4ed)" style="fill: none; stroke: #b0b0b0; stroke-opacity: 0.3; stroke-width: 0.8; stroke-linecap: square"/>
     </g>
     <g id="line2d_16">
      <g>
       <use xlink:href="#m885d881e5a" x="447.255001" y="257.128" style="stroke: #000000; stroke-width: 0.6"/>
      </g>
     </g>
    </g>
    <g id="xtick_9">
     <g id="line2d_17">
      <path d="M 459.503021 257.128 
L 459.503021 26.88 
" clip-path="url(#p3c1171a4ed)" style="fill: none; stroke: #b0b0b0; stroke-opacity: 0.3; stroke-width: 0.8; stroke-linecap: square"/>
     </g>
     <g id="line2d_18">
      <g>
       <use xlink:href="#m885d881e5a" x="459.503021" y="257.128" style="stroke: #000000; stroke-width: 0.6"/>
      </g>
     </g>
    </g>
    <g id="xtick_10">
     <g id="line2d_19">
      <path d="M 542.538226 257.128 
L 542.538226 26.88 
" clip-path="url(#p3c1171a4ed)" style="fill: none; stroke: #b0b0b0; stroke-opacity: 0.3; stroke-width: 0.8; stroke-linecap: square"/>
     </g>
     <g id="line2d_20">
      <g>
       <use xlink:href="#m885d881e5a" x="542.538226" y="257.128" style="stroke: #000000; stroke-width: 0.6"/>
      </g>
     </g>
    </g>
    <g id="xtick_11">
     <g id="line2d_21">
      <path d="M 584.701725 257.128 
L 584.701725 26.88 
" clip-path="url(#p3c1171a4ed)" style="fill: none; stroke: #b0b0b0; stroke-opacity: 0.3; stroke-width: 0.8; stroke-linecap: square"/>
     </g>
     <g id="line2d_22">
      <g>
       <use xlink:href="#m885d881e5a" x="584.701725" y="257.128" style="stroke: #000000; stroke-width: 0.6"/>
      </g>
     </g>
    </g>
    <g id="xtick_12">
     <g id="line2d_23">
      <path d="M 614.617204 257.128 
L 614.617204 26.88 
" clip-path="url(#p3c1171a4ed)" style="fill: none; stroke: #b0b0b0; stroke-opacity: 0.3; stroke-width: 0.8; stroke-linecap: square"/>
     </g>
     <g id="line2d_24">
      <g>
       <use xlink:href="#m885d881e5a" x="614.617204" y="257.128" style="stroke: #000000; stroke-width: 0.6"/>
      </g>
     </g>
    </g>
    <g id="xtick_13">
     <g id="line2d_25">
      <path d="M 637.821452 257.128 
L 637.821452 26.88 
" clip-path="url(#p3c1171a4ed)" style="fill: none; stroke: #b0b0b0; stroke-opacity: 0.3; stroke-width: 0.8; stroke-linecap: square"/>
     </g>
     <g id="line2d_26">
      <g>
       <use xlink:href="#m885d881e5a" x="637.821452" y="257.128" style="stroke: #000000; stroke-width: 0.6"/>
      </g>
     </g>
    </g>
    <g id="xtick_14">
     <g id="line2d_27">
      <path d="M 656.780703 257.128 
L 656.780703 26.88 
" clip-path="url(#p3c1171a4ed)" style="fill: none; stroke: #b0b0b0; stroke-opacity: 0.3; stroke-width: 0.8; stroke-linecap: square"/>
     </g>
     <g id="line2d_28">
      <g>
       <use xlink:href="#m885d881e5a" x="656.780703" y="257.128" style="stroke: #000000; stroke-width: 0.6"/>
      </g>
     </g>
    </g>
    <g id="text_2">
     <!-- seconds (log scale, lower is better) -->
     <g transform="translate(365.996651 285.404563) scale(0.1 -0.1)">
      <defs>
       <path id="DejaVuSans-73" d="M 2834 3397 
L 2834 2853 
Q 2591 2978 2328 3040 
Q 2066 3103 1784 3103 
Q 1356 3103 1142 2972 
Q 928 2841 928 2578 
Q 928 2378 1081 2264 
Q 1234 2150 1697 2047 
L 1894 2003 
Q 2506 1872 2764 1633 
Q 3022 1394 3022 966 
Q 3022 478 2636 193 
Q 2250 -91 1575 -91 
Q 1294 -91 989 -36 
Q 684 19 347 128 
L 347 722 
Q 666 556 975 473 
Q 1284 391 1588 391 
Q 1994 391 2212 530 
Q 2431 669 2431 922 
Q 2431 1156 2273 1281 
Q 2116 1406 1581 1522 
L 1381 1569 
Q 847 1681 609 1914 
Q 372 2147 372 2553 
Q 372 3047 722 3315 
Q 1072 3584 1716 3584 
Q 2034 3584 2315 3537 
Q 2597 3491 2834 3397 
z
" transform="scale(0.015625)"/>
       <path id="DejaVuSans-65" d="M 3597 1894 
L 3597 1613 
L 953 1613 
Q 991 1019 1311 708 
Q 1631 397 2203 397 
Q 2534 397 2845 478 
Q 3156 559 3463 722 
L 3463 178 
Q 3153 47 2828 -22 
Q 2503 -91 2169 -91 
Q 1331 -91 842 396 
Q 353 884 353 1716 
Q 353 2575 817 3079 
Q 1281 3584 2069 3584 
Q 2775 3584 3186 3129 
Q 3597 2675 3597 1894 
z
M 3022 2063 
Q 3016 2534 2758 2815 
Q 2500 3097 2075 3097 
Q 1594 3097 1305 2825 
Q 1016 2553 972 2059 
L 3022 2063 
z
" transform="scale(0.015625)"/>
       <path id="DejaVuSans-63" d="M 3122 3366 
L 3122 2828 
Q 2878 2963 2633 3030 
Q 2388 3097 2138 3097 
Q 1578 3097 1268 2742 
Q 959 2388 959 1747 
Q 959 1106 1268 751 
Q 1578 397 2138 397 
Q 2388 397 2633 464 
Q 2878 531 3122 666 
L 3122 134 
Q 2881 22 2623 -34 
Q 2366 -91 2075 -91 
Q 1284 -91 818 406 
Q 353 903 353 1747 
Q 353 2603 823 3093 
Q 1294 3584 2113 3584 
Q 2378 3584 2631 3529 
Q 2884 3475 3122 3366 
z
" transform="scale(0.015625)"/>
       <path id="DejaVuSans-6f" d="M 1959 3097 
Q 1497 3097 1228 2736 
Q 959 2375 959 1747 
Q 959 1119 1226 758 
Q 1494 397 1959 397 
Q 2419 397 2687 759 
Q 2956 1122 2956 1747 
Q 2956 2369 2687 2733 
Q 2419 3097 1959 3097 
z
M 1959 3584 
Q 2709 3584 3137 3096 
Q 3566 2609 3566 1747 
Q 3566 888 3137 398 
Q 2709 -91 1959 -91 
Q 1206 -91 779 398 
Q 353 888 353 1747 
Q 353 2609 779 3096 
Q 1206 3584 1959 3584 
z
" transform="scale(0.015625)"/>
       <path id="DejaVuSans-6e" d="M 3513 2113 
L 3513 0 
L 2938 0 
L 2938 2094 
Q 2938 2591 2744 2837 
Q 2550 3084 2163 3084 
Q 1697 3084 1428 2787 
Q 1159 2491 1159 1978 
L 1159 0 
L 581 0 
L 581 3500 
L 1159 3500 
L 1159 2956 
Q 1366 3272 1645 3428 
Q 1925 3584 2291 3584 
Q 2894 3584 3203 3211 
Q 3513 2838 3513 2113 
z
" transform="scale(0.015625)"/>
       <path id="DejaVuSans-64" d="M 2906 2969 
L 2906 4863 
L 3481 4863 
L 3481 0 
L 2906 0 
L 2906 525 
Q 2725 213 2448 61 
Q 2172 -91 1784 -91 
Q 1150 -91 751 415 
Q 353 922 353 1747 
Q 353 2572 751 3078 
Q 1150 3584 1784 3584 
Q 2172 3584 2448 3432 
Q 2725 3281 2906 2969 
z
M 947 1747 
Q 947 1113 1208 752 
Q 1469 391 1925 391 
Q 2381 391 2643 752 
Q 2906 1113 2906 1747 
Q 2906 2381 2643 2742 
Q 2381 3103 1925 3103 
Q 1469 3103 1208 2742 
Q 947 2381 947 1747 
z
" transform="scale(0.015625)"/>
       <path id="DejaVuSans-20" transform="scale(0.015625)"/>
       <path id="DejaVuSans-28" d="M 1984 4856 
Q 1566 4138 1362 3434 
Q 1159 2731 1159 2009 
Q 1159 1288 1364 580 
Q 1569 -128 1984 -844 
L 1484 -844 
Q 1016 -109 783 600 
Q 550 1309 550 2009 
Q 550 2706 781 3412 
Q 1013 4119 1484 4856 
L 1984 4856 
z
" transform="scale(0.015625)"/>
       <path id="DejaVuSans-6c" d="M 603 4863 
L 1178 4863 
L 1178 0 
L 603 0 
L 603 4863 
z
" transform="scale(0.015625)"/>
       <path id="DejaVuSans-67" d="M 2906 1791 
Q 2906 2416 2648 2759 
Q 2391 3103 1925 3103 
Q 1463 3103 1205 2759 
Q 947 2416 947 1791 
Q 947 1169 1205 825 
Q 1463 481 1925 481 
Q 2391 481 2648 825 
Q 2906 1169 2906 1791 
z
M 3481 434 
Q 3481 -459 3084 -895 
Q 2688 -1331 1869 -1331 
Q 1566 -1331 1297 -1286 
Q 1028 -1241 775 -1147 
L 775 -588 
Q 1028 -725 1275 -790 
Q 1522 -856 1778 -856 
Q 2344 -856 2625 -561 
Q 2906 -266 2906 331 
L 2906 616 
Q 2728 306 2450 153 
Q 2172 0 1784 0 
Q 1141 0 747 490 
Q 353 981 353 1791 
Q 353 2603 747 3093 
Q 1141 3584 1784 3584 
Q 2172 3584 2450 3431 
Q 2728 3278 2906 2969 
L 2906 3500 
L 3481 3500 
L 3481 434 
z
" transform="scale(0.015625)"/>
       <path id="DejaVuSans-61" d="M 2194 1759 
Q 1497 1759 1228 1600 
Q 959 1441 959 1056 
Q 959 750 1161 570 
Q 1363 391 1709 391 
Q 2188 391 2477 730 
Q 2766 1069 2766 1631 
L 2766 1759 
L 2194 1759 
z
M 3341 1997 
L 3341 0 
L 2766 0 
L 2766 531 
Q 2569 213 2275 61 
Q 1981 -91 1556 -91 
Q 1019 -91 701 211 
Q 384 513 384 1019 
Q 384 1609 779 1909 
Q 1175 2209 1959 2209 
L 2766 2209 
L 2766 2266 
Q 2766 2663 2505 2880 
Q 2244 3097 1772 3097 
Q 1472 3097 1187 3025 
Q 903 2953 641 2809 
L 641 3341 
Q 956 3463 1253 3523 
Q 1550 3584 1831 3584 
Q 2591 3584 2966 3190 
Q 3341 2797 3341 1997 
z
" transform="scale(0.015625)"/>
       <path id="DejaVuSans-2c" d="M 750 794 
L 1409 794 
L 1409 256 
L 897 -744 
L 494 -744 
L 750 256 
L 750 794 
z
" transform="scale(0.015625)"/>
       <path id="DejaVuSans-77" d="M 269 3500 
L 844 3500 
L 1563 769 
L 2278 3500 
L 2956 3500 
L 3675 769 
L 4391 3500 
L 4966 3500 
L 4050 0 
L 3372 0 
L 2619 2869 
L 1863 0 
L 1184 0 
L 269 3500 
z
" transform="scale(0.015625)"/>
       <path id="DejaVuSans-72" d="M 2631 2963 
Q 2534 3019 2420 3045 
Q 2306 3072 2169 3072 
Q 1681 3072 1420 2755 
Q 1159 2438 1159 1844 
L 1159 0 
L 581 0 
L 581 3500 
L 1159 3500 
L 1159 2956 
Q 1341 3275 1631 3429 
Q 1922 3584 2338 3584 
Q 2397 3584 2469 3576 
Q 2541 3569 2628 3553 
L 2631 2963 
z
" transform="scale(0.015625)"/>
       <path id="DejaVuSans-69" d="M 603 3500 
L 1178 3500 
L 1178 0 
L 603 0 
L 603 3500 
z
M 603 4863 
L 1178 4863 
L 1178 4134 
L 603 4134 
L 603 4863 
z
" transform="scale(0.015625)"/>
       <path id="DejaVuSans-62" d="M 3116 1747 
Q 3116 2381 2855 2742 
Q 2594 3103 2138 3103 
Q 1681 3103 1420 2742 
Q 1159 2381 1159 1747 
Q 1159 1113 1420 752 
Q 1681 391 2138 391 
Q 2594 391 2855 752 
Q 3116 1113 3116 1747 
z
M 1159 2969 
Q 1341 3281 1617 3432 
Q 1894 3584 2278 3584 
Q 2916 3584 3314 3078 
Q 3713 2572 3713 1747 
Q 3713 922 3314 415 
Q 2916 -91 2278 -91 
Q 1894 -91 1617 61 
Q 1341 213 1159 525 
L 1159 0 
L 581 0 
L 581 4863 
L 1159 4863 
L 1159 2969 
z
" transform="scale(0.015625)"/>
       <path id="DejaVuSans-74" d="M 1172 4494 
L 1172 3500 
L 2356 3500 
L 2356 3053 
L 1172 3053 
L 1172 1153 
Q 1172 725 1289 603 
Q 1406 481 1766 481 
L 2356 481 
L 2356 0 
L 1766 0 
Q 1100 0 847 248 
Q 594 497 594 1153 
L 594 3053 
L 172 3053 
L 172 3500 
L 594 3500 
L 594 4494 
L 1172 4494 
z
" transform="scale(0.015625)"/>
       <path id="DejaVuSans-29" d="M 513 4856 
L 1013 4856 
Q 1481 4119 1714 3412 
Q 1947 2706 1947 2009 
Q 1947 1309 1714 600 
Q 1481 -109 1013 -844 
L 513 -844 
Q 928 -128 1133 580 
Q 1338 1288 1338 2009 
Q 1338 2731 1133 3434 
Q 928 4138 513 4856 
z
" transform="scale(0.015625)"/>
      </defs>
      <use xlink:href="#DejaVuSans-73"/>
      <use xlink:href="#DejaVuSans-65" transform="translate(52.099609 0)"/>
      <use xlink:href="#DejaVuSans-63" transform="translate(113.623047 0)"/>
      <use xlink:href="#DejaVuSans-6f" transform="translate(168.603516 0)"/>
      <use xlink:href="#DejaVuSans-6e" transform="translate(229.785156 0)"/>
      <use xlink:href="#DejaVuSans-64" transform="translate(293.164062 0)"/>
      <use xlink:href="#DejaVuSans-73" transform="translate(356.640625 0)"/>
      <use xlink:href="#DejaVuSans-20" transform="translate(408.740234 0)"/>
      <use xlink:href="#DejaVuSans-28" transform="translate(440.527344 0)"/>
      <use xlink:href="#DejaVuSans-6c" transform="translate(479.541016 0)"/>
      <use xlink:href="#DejaVuSans-6f" transform="translate(507.324219 0)"/>
      <use xlink:href="#DejaVuSans-67" transform="translate(568.505859 0)"/>
      <use xlink:href="#DejaVuSans-20" transform="translate(631.982422 0)"/>
      <use xlink:href="#DejaVuSans-73" transform="translate(663.769531 0)"/>
      <use xlink:href="#DejaVuSans-63" transform="translate(715.869141 0)"/>
      <use xlink:href="#DejaVuSans-61" transform="translate(770.849609 0)"/>
      <use xlink:href="#DejaVuSans-6c" transform="translate(832.128906 0)"/>
      <use xlink:href="#DejaVuSans-65" transform="translate(859.912109 0)"/>
      <use xlink:href="#DejaVuSans-2c" transform="translate(921.435547 0)"/>
      <use xlink:href="#DejaVuSans-20" transform="translate(953.222656 0)"/>
      <use xlink:href="#DejaVuSans-6c" transform="translate(985.009766 0)"/>
      <use xlink:href="#DejaVuSans-6f" transform="translate(1012.792969 0)"/>
      <use xlink:href="#DejaVuSans-77" transform="translate(1073.974609 0)"/>
      <use xlink:href="#DejaVuSans-65" transform="translate(1155.761719 0)"/>
      <use xlink:href="#DejaVuSans-72" transform="translate(1217.285156 0)"/>
      <use xlink:href="#DejaVuSans-20" transform="translate(1258.398438 0)"/>
      <use xlink:href="#DejaVuSans-69" transform="translate(1290.185547 0)"/>
      <use xlink:href="#DejaVuSans-73" transform="translate(1317.96875 0)"/>
      <use xlink:href="#DejaVuSans-20" transform="translate(1370.068359 0)"/>
      <use xlink:href="#DejaVuSans-62" transform="translate(1401.855469 0)"/>
      <use xlink:href="#DejaVuSans-65" transform="translate(1465.332031 0)"/>
      <use xlink:href="#DejaVuSans-74" transform="translate(1526.855469 0)"/>
      <use xlink:href="#DejaVuSans-74" transform="translate(1566.064453 0)"/>
      <use xlink:href="#DejaVuSans-65" transform="translate(1605.273438 0)"/>
      <use xlink:href="#DejaVuSans-72" transform="translate(1666.796875 0)"/>
      <use xlink:href="#DejaVuSans-29" transform="translate(1707.910156 0)"/>
     </g>
    </g>
   </g>
   <g id="matplotlib.axis_2">
    <g id="ytick_1">
     <g id="line2d_29">
      <defs>
       <path id="m63a1932768" d="M 0 0 
L -3.5 0 
" style="stroke: #000000; stroke-width: 0.8"/>
      </defs>
      <g>
       <use xlink:href="#m63a1932768" x="237.49" y="54.788848" style="stroke: #000000; stroke-width: 0.8"/>
      </g>
     </g>
     <g id="text_3">
      <!-- NumPy — idiomatic (mask: compute every path) -->
      <g transform="translate(11.05875 58.208145) scale(0.09 -0.09)">
       <defs>
        <path id="DejaVuSans-4e" d="M 628 4666 
L 1478 4666 
L 3547 763 
L 3547 4666 
L 4159 4666 
L 4159 0 
L 3309 0 
L 1241 3903 
L 1241 0 
L 628 0 
L 628 4666 
z
" transform="scale(0.015625)"/>
        <path id="DejaVuSans-75" d="M 544 1381 
L 544 3500 
L 1119 3500 
L 1119 1403 
Q 1119 906 1312 657 
Q 1506 409 1894 409 
Q 2359 409 2629 706 
Q 2900 1003 2900 1516 
L 2900 3500 
L 3475 3500 
L 3475 0 
L 2900 0 
L 2900 538 
Q 2691 219 2414 64 
Q 2138 -91 1772 -91 
Q 1169 -91 856 284 
Q 544 659 544 1381 
z
M 1991 3584 
L 1991 3584 
z
" transform="scale(0.015625)"/>
        <path id="DejaVuSans-6d" d="M 3328 2828 
Q 3544 3216 3844 3400 
Q 4144 3584 4550 3584 
Q 5097 3584 5394 3201 
Q 5691 2819 5691 2113 
L 5691 0 
L 5113 0 
L 5113 2094 
Q 5113 2597 4934 2840 
Q 4756 3084 4391 3084 
Q 3944 3084 3684 2787 
Q 3425 2491 3425 1978 
L 3425 0 
L 2847 0 
L 2847 2094 
Q 2847 2600 2669 2842 
Q 2491 3084 2119 3084 
Q 1678 3084 1418 2786 
Q 1159 2488 1159 1978 
L 1159 0 
L 581 0 
L 581 3500 
L 1159 3500 
L 1159 2956 
Q 1356 3278 1631 3431 
Q 1906 3584 2284 3584 
Q 2666 3584 2933 3390 
Q 3200 3197 3328 2828 
z
" transform="scale(0.015625)"/>
        <path id="DejaVuSans-50" d="M 1259 4147 
L 1259 2394 
L 2053 2394 
Q 2494 2394 2734 2622 
Q 2975 2850 2975 3272 
Q 2975 3691 2734 3919 
Q 2494 4147 2053 4147 
L 1259 4147 
z
M 628 4666 
L 2053 4666 
Q 2838 4666 3239 4311 
Q 3641 3956 3641 3272 
Q 3641 2581 3239 2228 
Q 2838 1875 2053 1875 
L 1259 1875 
L 1259 0 
L 628 0 
L 628 4666 
z
" transform="scale(0.015625)"/>
        <path id="DejaVuSans-79" d="M 2059 -325 
Q 1816 -950 1584 -1140 
Q 1353 -1331 966 -1331 
L 506 -1331 
L 506 -850 
L 844 -850 
Q 1081 -850 1212 -737 
Q 1344 -625 1503 -206 
L 1606 56 
L 191 3500 
L 800 3500 
L 1894 763 
L 2988 3500 
L 3597 3500 
L 2059 -325 
z
" transform="scale(0.015625)"/>
        <path id="DejaVuSans-2014" d="M 313 1978 
L 6088 1978 
L 6088 1528 
L 313 1528 
L 313 1978 
z
" transform="scale(0.015625)"/>
        <path id="DejaVuSans-6b" d="M 581 4863 
L 1159 4863 
L 1159 1991 
L 2875 3500 
L 3609 3500 
L 1753 1863 
L 3688 0 
L 2938 0 
L 1159 1709 
L 1159 0 
L 581 0 
L 581 4863 
z
" transform="scale(0.015625)"/>
        <path id="DejaVuSans-3a" d="M 750 794 
L 1409 794 
L 1409 0 
L 750 0 
L 750 794 
z
M 750 3309 
L 1409 3309 
L 1409 2516 
L 750 2516 
L 750 3309 
z
" transform="scale(0.015625)"/>
        <path id="DejaVuSans-70" d="M 1159 525 
L 1159 -1331 
L 581 -1331 
L 581 3500 
L 1159 3500 
L 1159 2969 
Q 1341 3281 1617 3432 
Q 1894 3584 2278 3584 
Q 2916 3584 3314 3078 
Q 3713 2572 3713 1747 
Q 3713 922 3314 415 
Q 2916 -91 2278 -91 
Q 1894 -91 1617 61 
Q 1341 213 1159 525 
z
M 3116 1747 
Q 3116 2381 2855 2742 
Q 2594 3103 2138 3103 
Q 1681 3103 1420 2742 
Q 1159 2381 1159 1747 
Q 1159 1113 1420 752 
Q 1681 391 2138 391 
Q 2594 391 2855 752 
Q 3116 1113 3116 1747 
z
" transform="scale(0.015625)"/>
        <path id="DejaVuSans-76" d="M 191 3500 
L 800 3500 
L 1894 563 
L 2988 3500 
L 3597 3500 
L 2284 0 
L 1503 0 
L 191 3500 
z
" transform="scale(0.015625)"/>
        <path id="DejaVuSans-68" d="M 3513 2113 
L 3513 0 
L 2938 0 
L 2938 2094 
Q 2938 2591 2744 2837 
Q 2550 3084 2163 3084 
Q 1697 3084 1428 2787 
Q 1159 2491 1159 1978 
L 1159 0 
L 581 0 
L 581 4863 
L 1159 4863 
L 1159 2956 
Q 1366 3272 1645 3428 
Q 1925 3584 2291 3584 
Q 2894 3584 3203 3211 
Q 3513 2838 3513 2113 
z
" transform="scale(0.015625)"/>
       </defs>
       <use xlink:href="#DejaVuSans-4e"/>
       <use xlink:href="#DejaVuSans-75" transform="translate(74.804688 0)"/>
       <use xlink:href="#DejaVuSans-6d" transform="translate(138.183594 0)"/>
       <use xlink:href="#DejaVuSans-50" transform="translate(235.595703 0)"/>
       <use xlink:href="#DejaVuSans-79" transform="translate(295.898438 0)"/>
       <use xlink:href="#DejaVuSans-20" transform="translate(355.078125 0)"/>
       <use xlink:href="#DejaVuSans-2014" transform="translate(386.865234 0)"/>
       <use xlink:href="#DejaVuSans-20" transform="translate(486.865234 0)"/>
       <use xlink:href="#DejaVuSans-69" transform="translate(518.652344 0)"/>
       <use xlink:href="#DejaVuSans-64" transform="translate(546.435547 0)"/>
       <use xlink:href="#DejaVuSans-69" transform="translate(609.912109 0)"/>
       <use xlink:href="#DejaVuSans-6f" transform="translate(637.695312 0)"/>
       <use xlink:href="#DejaVuSans-6d" transform="translate(698.876953 0)"/>
       <use xlink:href="#DejaVuSans-61" transform="translate(796.289062 0)"/>
       <use xlink:href="#DejaVuSans-74" transform="translate(857.568359 0)"/>
       <use xlink:href="#DejaVuSans-69" transform="translate(896.777344 0)"/>
       <use xlink:href="#DejaVuSans-63" transform="translate(924.560547 0)"/>
       <use xlink:href="#DejaVuSans-20" transform="translate(979.541016 0)"/>
       <use xlink:href="#DejaVuSans-28" transform="translate(1011.328125 0)"/>
       <use xlink:href="#DejaVuSans-6d" transform="translate(1050.341797 0)"/>
       <use xlink:href="#DejaVuSans-61" transform="translate(1147.753906 0)"/>
       <use xlink:href="#DejaVuSans-73" transform="translate(1209.033203 0)"/>
       <use xlink:href="#DejaVuSans-6b" transform="translate(1261.132812 0)"/>
       <use xlink:href="#DejaVuSans-3a" transform="translate(1319.042969 0)"/>
       <use xlink:href="#DejaVuSans-20" transform="translate(1352.734375 0)"/>
       <use xlink:href="#DejaVuSans-63" transform="translate(1384.521484 0)"/>
       <use xlink:href="#DejaVuSans-6f" transform="translate(1439.501953 0)"/>
       <use xlink:href="#DejaVuSans-6d" transform="translate(1500.683594 0)"/>
       <use xlink:href="#DejaVuSans-70" transform="translate(1598.095703 0)"/>
       <use xlink:href="#DejaVuSans-75" transform="translate(1661.572266 0)"/>
       <use xlink:href="#DejaVuSans-74" transform="translate(1724.951172 0)"/>
       <use xlink:href="#DejaVuSans-65" transform="translate(1764.160156 0)"/>
       <use xlink:href="#DejaVuSans-20" transform="translate(1825.683594 0)"/>
       <use xlink:href="#DejaVuSans-65" transform="translate(1857.470703 0)"/>
       <use xlink:href="#DejaVuSans-76" transform="translate(1918.994141 0)"/>
       <use xlink:href="#DejaVuSans-65" transform="translate(1978.173828 0)"/>
       <use xlink:href="#DejaVuSans-72" transform="translate(2039.697266 0)"/>
       <use xlink:href="#DejaVuSans-79" transform="translate(2080.810547 0)"/>
       <use xlink:href="#DejaVuSans-20" transform="translate(2139.990234 0)"/>
       <use xlink:href="#DejaVuSans-70" transform="translate(2171.777344 0)"/>
       <use xlink:href="#DejaVuSans-61" transform="translate(2235.253906 0)"/>
       <use xlink:href="#DejaVuSans-74" transform="translate(2296.533203 0)"/>
       <use xlink:href="#DejaVuSans-68" transform="translate(2335.742188 0)"/>
       <use xlink:href="#DejaVuSans-29" transform="translate(2399.121094 0)"/>
      </g>
     </g>
    </g>
    <g id="ytick_2">
     <g id="line2d_30">
      <g>
       <use xlink:href="#m63a1932768" x="237.49" y="98.396424" style="stroke: #000000; stroke-width: 0.8"/>
      </g>
     </g>
     <g id="text_4">
      <!-- NumPy — optimized (gather triggered paths) -->
      <g transform="translate(27.4275 101.815721) scale(0.09 -0.09)">
       <defs>
        <path id="DejaVuSans-7a" d="M 353 3500 
L 3084 3500 
L 3084 2975 
L 922 459 
L 3084 459 
L 3084 0 
L 275 0 
L 275 525 
L 2438 3041 
L 353 3041 
L 353 3500 
z
" transform="scale(0.015625)"/>
       </defs>
       <use xlink:href="#DejaVuSans-4e"/>
       <use xlink:href="#DejaVuSans-75" transform="translate(74.804688 0)"/>
       <use xlink:href="#DejaVuSans-6d" transform="translate(138.183594 0)"/>
       <use xlink:href="#DejaVuSans-50" transform="translate(235.595703 0)"/>
       <use xlink:href="#DejaVuSans-79" transform="translate(295.898438 0)"/>
       <use xlink:href="#DejaVuSans-20" transform="translate(355.078125 0)"/>
       <use xlink:href="#DejaVuSans-2014" transform="translate(386.865234 0)"/>
       <use xlink:href="#DejaVuSans-20" transform="translate(486.865234 0)"/>
       <use xlink:href="#DejaVuSans-6f" transform="translate(518.652344 0)"/>
       <use xlink:href="#DejaVuSans-70" transform="translate(579.833984 0)"/>
       <use xlink:href="#DejaVuSans-74" transform="translate(643.310547 0)"/>
       <use xlink:href="#DejaVuSans-69" transform="translate(682.519531 0)"/>
       <use xlink:href="#DejaVuSans-6d" transform="translate(710.302734 0)"/>
       <use xlink:href="#DejaVuSans-69" transform="translate(807.714844 0)"/>
       <use xlink:href="#DejaVuSans-7a" transform="translate(835.498047 0)"/>
       <use xlink:href="#DejaVuSans-65" transform="translate(887.988281 0)"/>
       <use xlink:href="#DejaVuSans-64" transform="translate(949.511719 0)"/>
       <use xlink:href="#DejaVuSans-20" transform="translate(1012.988281 0)"/>
       <use xlink:href="#DejaVuSans-28" transform="translate(1044.775391 0)"/>
       <use xlink:href="#DejaVuSans-67" transform="translate(1083.789062 0)"/>
       <use xlink:href="#DejaVuSans-61" transform="translate(1147.265625 0)"/>
       <use xlink:href="#DejaVuSans-74" transform="translate(1208.544922 0)"/>
       <use xlink:href="#DejaVuSans-68" transform="translate(1247.753906 0)"/>
       <use xlink:href="#DejaVuSans-65" transform="translate(1311.132812 0)"/>
       <use xlink:href="#DejaVuSans-72" transform="translate(1372.65625 0)"/>
       <use xlink:href="#DejaVuSans-20" transform="translate(1413.769531 0)"/>
       <use xlink:href="#DejaVuSans-74" transform="translate(1445.556641 0)"/>
       <use xlink:href="#DejaVuSans-72" transform="translate(1484.765625 0)"/>
       <use xlink:href="#DejaVuSans-69" transform="translate(1525.878906 0)"/>
       <use xlink:href="#DejaVuSans-67" transform="translate(1553.662109 0)"/>
       <use xlink:href="#DejaVuSans-67" transform="translate(1617.138672 0)"/>
       <use xlink:href="#DejaVuSans-65" transform="translate(1680.615234 0)"/>
       <use xlink:href="#DejaVuSans-72" transform="translate(1742.138672 0)"/>
       <use xlink:href="#DejaVuSans-65" transform="translate(1781.001953 0)"/>
       <use xlink:href="#DejaVuSans-64" transform="translate(1842.525391 0)"/>
       <use xlink:href="#DejaVuSans-20" transform="translate(1906.001953 0)"/>
       <use xlink:href="#DejaVuSans-70" transform="translate(1937.789062 0)"/>
       <use xlink:href="#DejaVuSans-61" transform="translate(2001.265625 0)"/>
       <use xlink:href="#DejaVuSans-74" transform="translate(2062.544922 0)"/>
       <use xlink:href="#DejaVuSans-68" transform="translate(2101.753906 0)"/>
       <use xlink:href="#DejaVuSans-73" transform="translate(2165.132812 0)"/>
       <use xlink:href="#DejaVuSans-29" transform="translate(2217.232422 0)"/>
      </g>
     </g>
    </g>
    <g id="ytick_3">
     <g id="line2d_31">
      <g>
       <use xlink:href="#m63a1932768" x="237.49" y="142.004" style="stroke: #000000; stroke-width: 0.8"/>
      </g>
     </g>
     <g id="text_5">
      <!-- sx: single wide inline (1 core) -->
      <g transform="translate(98.699063 145.423297) scale(0.09 -0.09)">
       <defs>
        <path id="DejaVuSans-78" d="M 3513 3500 
L 2247 1797 
L 3578 0 
L 2900 0 
L 1881 1375 
L 863 0 
L 184 0 
L 1544 1831 
L 300 3500 
L 978 3500 
L 1906 2253 
L 2834 3500 
L 3513 3500 
z
" transform="scale(0.015625)"/>
       </defs>
       <use xlink:href="#DejaVuSans-73"/>
       <use xlink:href="#DejaVuSans-78" transform="translate(52.099609 0)"/>
       <use xlink:href="#DejaVuSans-3a" transform="translate(111.279297 0)"/>
       <use xlink:href="#DejaVuSans-20" transform="translate(144.970703 0)"/>
       <use xlink:href="#DejaVuSans-73" transform="translate(176.757812 0)"/>
       <use xlink:href="#DejaVuSans-69" transform="translate(228.857422 0)"/>
       <use xlink:href="#DejaVuSans-6e" transform="translate(256.640625 0)"/>
       <use xlink:href="#DejaVuSans-67" transform="translate(320.019531 0)"/>
       <use xlink:href="#DejaVuSans-6c" transform="translate(383.496094 0)"/>
       <use xlink:href="#DejaVuSans-65" transform="translate(411.279297 0)"/>
       <use xlink:href="#DejaVuSans-20" transform="translate(472.802734 0)"/>
       <use xlink:href="#DejaVuSans-77" transform="translate(504.589844 0)"/>
       <use xlink:href="#DejaVuSans-69" transform="translate(586.376953 0)"/>
       <use xlink:href="#DejaVuSans-64" transform="translate(614.160156 0)"/>
       <use xlink:href="#DejaVuSans-65" transform="translate(677.636719 0)"/>
       <use xlink:href="#DejaVuSans-20" transform="translate(739.160156 0)"/>
       <use xlink:href="#DejaVuSans-69" transform="translate(770.947266 0)"/>
       <use xlink:href="#DejaVuSans-6e" transform="translate(798.730469 0)"/>
       <use xlink:href="#DejaVuSans-6c" transform="translate(862.109375 0)"/>
       <use xlink:href="#DejaVuSans-69" transform="translate(889.892578 0)"/>
       <use xlink:href="#DejaVuSans-6e" transform="translate(917.675781 0)"/>
       <use xlink:href="#DejaVuSans-65" transform="translate(981.054688 0)"/>
       <use xlink:href="#DejaVuSans-20" transform="translate(1042.578125 0)"/>
       <use xlink:href="#DejaVuSans-28" transform="translate(1074.365234 0)"/>
       <use xlink:href="#DejaVuSans-31" transform="translate(1113.378906 0)"/>
       <use xlink:href="#DejaVuSans-20" transform="translate(1177.001953 0)"/>
       <use xlink:href="#DejaVuSans-63" transform="translate(1208.789062 0)"/>
       <use xlink:href="#DejaVuSans-6f" transform="translate(1263.769531 0)"/>
       <use xlink:href="#DejaVuSans-72" transform="translate(1324.951172 0)"/>
       <use xlink:href="#DejaVuSans-65" transform="translate(1363.814453 0)"/>
       <use xlink:href="#DejaVuSans-29" transform="translate(1425.337891 0)"/>
      </g>
     </g>
    </g>
    <g id="ytick_4">
     <g id="line2d_32">
      <g>
       <use xlink:href="#m63a1932768" x="237.49" y="185.611576" style="stroke: #000000; stroke-width: 0.8"/>
      </g>
     </g>
     <g id="text_6">
      <!-- sx: N systems, inline (1 core) -->
      <g transform="translate(99.637031 189.030873) scale(0.09 -0.09)">
       <use xlink:href="#DejaVuSans-73"/>
       <use xlink:href="#DejaVuSans-78" transform="translate(52.099609 0)"/>
       <use xlink:href="#DejaVuSans-3a" transform="translate(111.279297 0)"/>
       <use xlink:href="#DejaVuSans-20" transform="translate(144.970703 0)"/>
       <use xlink:href="#DejaVuSans-4e" transform="translate(176.757812 0)"/>
       <use xlink:href="#DejaVuSans-20" transform="translate(251.5625 0)"/>
       <use xlink:href="#DejaVuSans-73" transform="translate(283.349609 0)"/>
       <use xlink:href="#DejaVuSans-79" transform="translate(335.449219 0)"/>
       <use xlink:href="#DejaVuSans-73" transform="translate(394.628906 0)"/>
       <use xlink:href="#DejaVuSans-74" transform="translate(446.728516 0)"/>
       <use xlink:href="#DejaVuSans-65" transform="translate(485.9375 0)"/>
       <use xlink:href="#DejaVuSans-6d" transform="translate(547.460938 0)"/>
       <use xlink:href="#DejaVuSans-73" transform="translate(644.873047 0)"/>
       <use xlink:href="#DejaVuSans-2c" transform="translate(696.972656 0)"/>
       <use xlink:href="#DejaVuSans-20" transform="translate(728.759766 0)"/>
       <use xlink:href="#DejaVuSans-69" transform="translate(760.546875 0)"/>
       <use xlink:href="#DejaVuSans-6e" transform="translate(788.330078 0)"/>
       <use xlink:href="#DejaVuSans-6c" transform="translate(851.708984 0)"/>
       <use xlink:href="#DejaVuSans-69" transform="translate(879.492188 0)"/>
       <use xlink:href="#DejaVuSans-6e" transform="translate(907.275391 0)"/>
       <use xlink:href="#DejaVuSans-65" transform="translate(970.654297 0)"/>
       <use xlink:href="#DejaVuSans-20" transform="translate(1032.177734 0)"/>
       <use xlink:href="#DejaVuSans-28" transform="translate(1063.964844 0)"/>
       <use xlink:href="#DejaVuSans-31" transform="translate(1102.978516 0)"/>
       <use xlink:href="#DejaVuSans-20" transform="translate(1166.601562 0)"/>
       <use xlink:href="#DejaVuSans-63" transform="translate(1198.388672 0)"/>
       <use xlink:href="#DejaVuSans-6f" transform="translate(1253.369141 0)"/>
       <use xlink:href="#DejaVuSans-72" transform="translate(1314.550781 0)"/>
       <use xlink:href="#DejaVuSans-65" transform="translate(1353.414062 0)"/>
       <use xlink:href="#DejaVuSans-29" transform="translate(1414.9375 0)"/>
      </g>
     </g>
    </g>
    <g id="ytick_5">
     <g id="line2d_33">
      <g>
       <use xlink:href="#m63a1932768" x="237.49" y="229.219152" style="stroke: #000000; stroke-width: 0.8"/>
      </g>
     </g>
     <g id="text_7">
      <!-- sx: ensemble, all cores -->
      <g transform="translate(127.320469 232.638448) scale(0.09 -0.09)">
       <use xlink:href="#DejaVuSans-73"/>
       <use xlink:href="#DejaVuSans-78" transform="translate(52.099609 0)"/>
       <use xlink:href="#DejaVuSans-3a" transform="translate(111.279297 0)"/>
       <use xlink:href="#DejaVuSans-20" transform="translate(144.970703 0)"/>
       <use xlink:href="#DejaVuSans-65" transform="translate(176.757812 0)"/>
       <use xlink:href="#DejaVuSans-6e" transform="translate(238.28125 0)"/>
       <use xlink:href="#DejaVuSans-73" transform="translate(301.660156 0)"/>
       <use xlink:href="#DejaVuSans-65" transform="translate(353.759766 0)"/>
       <use xlink:href="#DejaVuSans-6d" transform="translate(415.283203 0)"/>
       <use xlink:href="#DejaVuSans-62" transform="translate(512.695312 0)"/>
       <use xlink:href="#DejaVuSans-6c" transform="translate(576.171875 0)"/>
       <use xlink:href="#DejaVuSans-65" transform="translate(603.955078 0)"/>
       <use xlink:href="#DejaVuSans-2c" transform="translate(665.478516 0)"/>
       <use xlink:href="#DejaVuSans-20" transform="translate(697.265625 0)"/>
       <use xlink:href="#DejaVuSans-61" transform="translate(729.052734 0)"/>
       <use xlink:href="#DejaVuSans-6c" transform="translate(790.332031 0)"/>
       <use xlink:href="#DejaVuSans-6c" transform="translate(818.115234 0)"/>
       <use xlink:href="#DejaVuSans-20" transform="translate(845.898438 0)"/>
       <use xlink:href="#DejaVuSans-63" transform="translate(877.685547 0)"/>
       <use xlink:href="#DejaVuSans-6f" transform="translate(932.666016 0)"/>
       <use xlink:href="#DejaVuSans-72" transform="translate(993.847656 0)"/>
       <use xlink:href="#DejaVuSans-65" transform="translate(1032.710938 0)"/>
       <use xlink:href="#DejaVuSans-73" transform="translate(1094.234375 0)"/>
      </g>
     </g>
    </g>
   </g>
   <g id="patch_8">
    <path d="M 237.49 257.128 
L 237.49 26.88 
" style="fill: none; stroke: #000000; stroke-width: 0.8; stroke-linejoin: miter; stroke-linecap: square"/>
   </g>
   <g id="patch_9">
    <path d="M 669.195489 257.128 
L 669.195489 26.88 
" style="fill: none; stroke: #000000; stroke-width: 0.8; stroke-linejoin: miter; stroke-linecap: square"/>
   </g>
   <g id="patch_10">
    <path d="M 237.49 257.128 
L 669.195489 257.128 
" style="fill: none; stroke: #000000; stroke-width: 0.8; stroke-linejoin: miter; stroke-linecap: square"/>
   </g>
   <g id="patch_11">
    <path d="M 237.49 26.88 
L 669.195489 26.88 
" style="fill: none; stroke: #000000; stroke-width: 0.8; stroke-linejoin: miter; stroke-linecap: square"/>
   </g>
   <g id="text_8">
    <!-- 5.60s -->
    <g transform="translate(654.646103 56.996348) scale(0.08 -0.08)">
     <defs>
      <path id="DejaVuSans-35" d="M 691 4666 
L 3169 4666 
L 3169 4134 
L 1269 4134 
L 1269 2991 
Q 1406 3038 1543 3061 
Q 1681 3084 1819 3084 
Q 2600 3084 3056 2656 
Q 3513 2228 3513 1497 
Q 3513 744 3044 326 
Q 2575 -91 1722 -91 
Q 1428 -91 1123 -41 
Q 819 9 494 109 
L 494 744 
Q 775 591 1075 516 
Q 1375 441 1709 441 
Q 2250 441 2565 725 
Q 2881 1009 2881 1497 
Q 2881 1984 2565 2268 
Q 2250 2553 1709 2553 
Q 1456 2553 1204 2497 
Q 953 2441 691 2322 
L 691 4666 
z
" transform="scale(0.015625)"/>
      <path id="DejaVuSans-2e" d="M 684 794 
L 1344 794 
L 1344 0 
L 684 0 
L 684 794 
z
" transform="scale(0.015625)"/>
      <path id="DejaVuSans-36" d="M 2113 2584 
Q 1688 2584 1439 2293 
Q 1191 2003 1191 1497 
Q 1191 994 1439 701 
Q 1688 409 2113 409 
Q 2538 409 2786 701 
Q 3034 994 3034 1497 
Q 3034 2003 2786 2293 
Q 2538 2584 2113 2584 
z
M 3366 4563 
L 3366 3988 
Q 3128 4100 2886 4159 
Q 2644 4219 2406 4219 
Q 1781 4219 1451 3797 
Q 1122 3375 1075 2522 
Q 1259 2794 1537 2939 
Q 1816 3084 2150 3084 
Q 2853 3084 3261 2657 
Q 3669 2231 3669 1497 
Q 3669 778 3244 343 
Q 2819 -91 2113 -91 
Q 1303 -91 875 529 
Q 447 1150 447 2328 
Q 447 3434 972 4092 
Q 1497 4750 2381 4750 
Q 2619 4750 2861 4703 
Q 3103 4656 3366 4563 
z
" transform="scale(0.015625)"/>
     </defs>
     <use xlink:href="#DejaVuSans-35"/>
     <use xlink:href="#DejaVuSans-2e" transform="translate(63.623047 0)"/>
     <use xlink:href="#DejaVuSans-36" transform="translate(95.410156 0)"/>
     <use xlink:href="#DejaVuSans-30" transform="translate(159.033203 0)"/>
     <use xlink:href="#DejaVuSans-73" transform="translate(222.65625 0)"/>
    </g>
   </g>
   <g id="text_9">
    <!-- 0.47s -->
    <g transform="translate(396.055134 100.603924) scale(0.08 -0.08)">
     <defs>
      <path id="DejaVuSans-34" d="M 2419 4116 
L 825 1625 
L 2419 1625 
L 2419 4116 
z
M 2253 4666 
L 3047 4666 
L 3047 1625 
L 3713 1625 
L 3713 1100 
L 3047 1100 
L 3047 0 
L 2419 0 
L 2419 1100 
L 313 1100 
L 313 1709 
L 2253 4666 
z
" transform="scale(0.015625)"/>
      <path id="DejaVuSans-37" d="M 525 4666 
L 3525 4666 
L 3525 4397 
L 1831 0 
L 1172 0 
L 2766 4134 
L 525 4134 
L 525 4666 
z
" transform="scale(0.015625)"/>
     </defs>
     <use xlink:href="#DejaVuSans-30"/>
     <use xlink:href="#DejaVuSans-2e" transform="translate(63.623047 0)"/>
     <use xlink:href="#DejaVuSans-34" transform="translate(95.410156 0)"/>
     <use xlink:href="#DejaVuSans-37" transform="translate(159.033203 0)"/>
     <use xlink:href="#DejaVuSans-73" transform="translate(222.65625 0)"/>
    </g>
   </g>
   <g id="text_10">
    <!-- 0.62s -->
    <g transform="translate(425.14488 144.2115) scale(0.08 -0.08)">
     <defs>
      <path id="DejaVuSans-32" d="M 1228 531 
L 3431 531 
L 3431 0 
L 469 0 
L 469 531 
Q 828 903 1448 1529 
Q 2069 2156 2228 2338 
Q 2531 2678 2651 2914 
Q 2772 3150 2772 3378 
Q 2772 3750 2511 3984 
Q 2250 4219 1831 4219 
Q 1534 4219 1204 4116 
Q 875 4013 500 3803 
L 500 4441 
Q 881 4594 1212 4672 
Q 1544 4750 1819 4750 
Q 2544 4750 2975 4387 
Q 3406 4025 3406 3419 
Q 3406 3131 3298 2873 
Q 3191 2616 2906 2266 
Q 2828 2175 2409 1742 
Q 1991 1309 1228 531 
z
" transform="scale(0.015625)"/>
     </defs>
     <use xlink:href="#DejaVuSans-30"/>
     <use xlink:href="#DejaVuSans-2e" transform="translate(63.623047 0)"/>
     <use xlink:href="#DejaVuSans-36" transform="translate(95.410156 0)"/>
     <use xlink:href="#DejaVuSans-32" transform="translate(159.033203 0)"/>
     <use xlink:href="#DejaVuSans-73" transform="translate(222.65625 0)"/>
    </g>
   </g>
   <g id="text_11">
    <!-- 0.64s -->
    <g transform="translate(429.466196 187.819076) scale(0.08 -0.08)">
     <use xlink:href="#DejaVuSans-30"/>
     <use xlink:href="#DejaVuSans-2e" transform="translate(63.623047 0)"/>
     <use xlink:href="#DejaVuSans-36" transform="translate(95.410156 0)"/>
     <use xlink:href="#DejaVuSans-34" transform="translate(159.033203 0)"/>
     <use xlink:href="#DejaVuSans-73" transform="translate(222.65625 0)"/>
    </g>
   </g>
   <g id="text_12">
    <!-- 0.13s -->
    <g transform="translate(262.186568 231.426652) scale(0.08 -0.08)">
     <defs>
      <path id="DejaVuSans-33" d="M 2597 2516 
Q 3050 2419 3304 2112 
Q 3559 1806 3559 1356 
Q 3559 666 3084 287 
Q 2609 -91 1734 -91 
Q 1441 -91 1130 -33 
Q 819 25 488 141 
L 488 750 
Q 750 597 1062 519 
Q 1375 441 1716 441 
Q 2309 441 2620 675 
Q 2931 909 2931 1356 
Q 2931 1769 2642 2001 
Q 2353 2234 1838 2234 
L 1294 2234 
L 1294 2753 
L 1863 2753 
Q 2328 2753 2575 2939 
Q 2822 3125 2822 3475 
Q 2822 3834 2567 4026 
Q 2313 4219 1838 4219 
Q 1578 4219 1281 4162 
Q 984 4106 628 3988 
L 628 4550 
Q 988 4650 1302 4700 
Q 1616 4750 1894 4750 
Q 2613 4750 3031 4423 
Q 3450 4097 3450 3541 
Q 3450 3153 3228 2886 
Q 3006 2619 2597 2516 
z
" transform="scale(0.015625)"/>
     </defs>
     <use xlink:href="#DejaVuSans-30"/>
     <use xlink:href="#DejaVuSans-2e" transform="translate(63.623047 0)"/>
     <use xlink:href="#DejaVuSans-31" transform="translate(95.410156 0)"/>
     <use xlink:href="#DejaVuSans-33" transform="translate(159.033203 0)"/>
     <use xlink:href="#DejaVuSans-73" transform="translate(222.65625 0)"/>
    </g>
   </g>
   <g id="text_13">
    <!-- Branching-coupled system (hard to vectorize) — 10,000 paths × 2,000 steps -->
    <g transform="translate(222.261182 20.88) scale(0.12 -0.12)">
     <defs>
      <path id="DejaVuSans-42" d="M 1259 2228 
L 1259 519 
L 2272 519 
Q 2781 519 3026 730 
Q 3272 941 3272 1375 
Q 3272 1813 3026 2020 
Q 2781 2228 2272 2228 
L 1259 2228 
z
M 1259 4147 
L 1259 2741 
L 2194 2741 
Q 2656 2741 2882 2914 
Q 3109 3088 3109 3444 
Q 3109 3797 2882 3972 
Q 2656 4147 2194 4147 
L 1259 4147 
z
M 628 4666 
L 2241 4666 
Q 2963 4666 3353 4366 
Q 3744 4066 3744 3513 
Q 3744 3084 3544 2831 
Q 3344 2578 2956 2516 
Q 3422 2416 3680 2098 
Q 3938 1781 3938 1306 
Q 3938 681 3513 340 
Q 3088 0 2303 0 
L 628 0 
L 628 4666 
z
" transform="scale(0.015625)"/>
      <path id="DejaVuSans-2d" d="M 313 2009 
L 1997 2009 
L 1997 1497 
L 313 1497 
L 313 2009 
z
" transform="scale(0.015625)"/>
      <path id="DejaVuSans-d7" d="M 4488 3438 
L 3059 2003 
L 4488 575 
L 4116 197 
L 2681 1631 
L 1247 197 
L 878 575 
L 2303 2003 
L 878 3438 
L 1247 3816 
L 2681 2381 
L 4116 3816 
L 4488 3438 
z
" transform="scale(0.015625)"/>
     </defs>
     <use xlink:href="#DejaVuSans-42"/>
     <use xlink:href="#DejaVuSans-72" transform="translate(68.603516 0)"/>
     <use xlink:href="#DejaVuSans-61" transform="translate(109.716797 0)"/>
     <use xlink:href="#DejaVuSans-6e" transform="translate(170.996094 0)"/>
     <use xlink:href="#DejaVuSans-63" transform="translate(234.375 0)"/>
     <use xlink:href="#DejaVuSans-68" transform="translate(289.355469 0)"/>
     <use xlink:href="#DejaVuSans-69" transform="translate(352.734375 0)"/>
     <use xlink:href="#DejaVuSans-6e" transform="translate(380.517578 0)"/>
     <use xlink:href="#DejaVuSans-67" transform="translate(443.896484 0)"/>
     <use xlink:href="#DejaVuSans-2d" transform="translate(507.373047 0)"/>
     <use xlink:href="#DejaVuSans-63" transform="translate(543.457031 0)"/>
     <use xlink:href="#DejaVuSans-6f" transform="translate(598.4375 0)"/>
     <use xlink:href="#DejaVuSans-75" transform="translate(659.619141 0)"/>
     <use xlink:href="#DejaVuSans-70" transform="translate(722.998047 0)"/>
     <use xlink:href="#DejaVuSans-6c" transform="translate(786.474609 0)"/>
     <use xlink:href="#DejaVuSans-65" transform="translate(814.257812 0)"/>
     <use xlink:href="#DejaVuSans-64" transform="translate(875.78125 0)"/>
     <use xlink:href="#DejaVuSans-20" transform="translate(939.257812 0)"/>
     <use xlink:href="#DejaVuSans-73" transform="translate(971.044922 0)"/>
     <use xlink:href="#DejaVuSans-79" transform="translate(1023.144531 0)"/>
     <use xlink:href="#DejaVuSans-73" transform="translate(1082.324219 0)"/>
     <use xlink:href="#DejaVuSans-74" transform="translate(1134.423828 0)"/>
     <use xlink:href="#DejaVuSans-65" transform="translate(1173.632812 0)"/>
     <use xlink:href="#DejaVuSans-6d" transform="translate(1235.15625 0)"/>
     <use xlink:href="#DejaVuSans-20" transform="translate(1332.568359 0)"/>
     <use xlink:href="#DejaVuSans-28" transform="translate(1364.355469 0)"/>
     <use xlink:href="#DejaVuSans-68" transform="translate(1403.369141 0)"/>
     <use xlink:href="#DejaVuSans-61" transform="translate(1466.748047 0)"/>
     <use xlink:href="#DejaVuSans-72" transform="translate(1528.027344 0)"/>
     <use xlink:href="#DejaVuSans-64" transform="translate(1567.390625 0)"/>
     <use xlink:href="#DejaVuSans-20" transform="translate(1630.867188 0)"/>
     <use xlink:href="#DejaVuSans-74" transform="translate(1662.654297 0)"/>
     <use xlink:href="#DejaVuSans-6f" transform="translate(1701.863281 0)"/>
     <use xlink:href="#DejaVuSans-20" transform="translate(1763.044922 0)"/>
     <use xlink:href="#DejaVuSans-76" transform="translate(1794.832031 0)"/>
     <use xlink:href="#DejaVuSans-65" transform="translate(1854.011719 0)"/>
     <use xlink:href="#DejaVuSans-63" transform="translate(1915.535156 0)"/>
     <use xlink:href="#DejaVuSans-74" transform="translate(1970.515625 0)"/>
     <use xlink:href="#DejaVuSans-6f" transform="translate(2009.724609 0)"/>
     <use xlink:href="#DejaVuSans-72" transform="translate(2070.90625 0)"/>
     <use xlink:href="#DejaVuSans-69" transform="translate(2112.019531 0)"/>
     <use xlink:href="#DejaVuSans-7a" transform="translate(2139.802734 0)"/>
     <use xlink:href="#DejaVuSans-65" transform="translate(2192.292969 0)"/>
     <use xlink:href="#DejaVuSans-29" transform="translate(2253.816406 0)"/>
     <use xlink:href="#DejaVuSans-20" transform="translate(2292.830078 0)"/>
     <use xlink:href="#DejaVuSans-2014" transform="translate(2324.617188 0)"/>
     <use xlink:href="#DejaVuSans-20" transform="translate(2424.617188 0)"/>
     <use xlink:href="#DejaVuSans-31" transform="translate(2456.404297 0)"/>
     <use xlink:href="#DejaVuSans-30" transform="translate(2520.027344 0)"/>
     <use xlink:href="#DejaVuSans-2c" transform="translate(2583.650391 0)"/>
     <use xlink:href="#DejaVuSans-30" transform="translate(2615.4375 0)"/>
     <use xlink:href="#DejaVuSans-30" transform="translate(2679.060547 0)"/>
     <use xlink:href="#DejaVuSans-30" transform="translate(2742.683594 0)"/>
     <use xlink:href="#DejaVuSans-20" transform="translate(2806.306641 0)"/>
     <use xlink:href="#DejaVuSans-70" transform="translate(2838.09375 0)"/>
     <use xlink:href="#DejaVuSans-61" transform="translate(2901.570312 0)"/>
     <use xlink:href="#DejaVuSans-74" transform="translate(2962.849609 0)"/>
     <use xlink:href="#DejaVuSans-68" transform="translate(3002.058594 0)"/>
     <use xlink:href="#DejaVuSans-73" transform="translate(3065.4375 0)"/>
     <use xlink:href="#DejaVuSans-20" transform="translate(3117.537109 0)"/>
     <use xlink:href="#DejaVuSans-d7" transform="translate(3149.324219 0)"/>
     <use xlink:href="#DejaVuSans-20" transform="translate(3233.113281 0)"/>
     <use xlink:href="#DejaVuSans-32" transform="translate(3264.900391 0)"/>
     <use xlink:href="#DejaVuSans-2c" transform="translate(3328.523438 0)"/>
     <use xlink:href="#DejaVuSans-30" transform="translate(3360.310547 0)"/>
     <use xlink:href="#DejaVuSans-30" transform="translate(3423.933594 0)"/>
     <use xlink:href="#DejaVuSans-30" transform="translate(3487.556641 0)"/>
     <use xlink:href="#DejaVuSans-20" transform="translate(3551.179688 0)"/>
     <use xlink:href="#DejaVuSans-73" transform="translate(3582.966797 0)"/>
     <use xlink:href="#DejaVuSans-74" transform="translate(3635.066406 0)"/>
     <use xlink:href="#DejaVuSans-65" transform="translate(3674.275391 0)"/>
     <use xlink:href="#DejaVuSans-70" transform="translate(3735.798828 0)"/>
     <use xlink:href="#DejaVuSans-73" transform="translate(3799.275391 0)"/>
    </g>
   </g>
  </g>
 </g>
 <defs>
  <clipPath id="p3c1171a4ed">
   <rect x="237.49" y="26.88" width="431.705489" height="230.248"/>
  </clipPath>
 </defs>
</svg>
