<?xml version="1.0" encoding="utf-8" standalone="no"?>
<!DOCTYPE svg PUBLIC "-//W3C//DTD SVG 1.1//EN"
  "http://www.w3.org/Graphics/SVG/1.1/DTD/svg11.dtd">
<svg xmlns:xlink="http://www.w3.org/1999/xlink" width="648pt" height="331.2pt" viewBox="0 0 648 331.2" xmlns="http://www.w3.org/2000/svg" version="1.1">
 <metadata>
  <rdf:RDF xmlns:dc="http://purl.org/dc/elements/1.1/" xmlns:cc="http://creativecommons.org/ns#" xmlns:rdf="http://www.w3.org/1999/02/22-rdf-syntax-ns#">
   <cc:Work>
    <dc:type rdf:resource="http://purl.org/dc/dcmitype/StillImage"/>
    <dc:date>2026-07-14T19:21:27.522899</dc:date>
    <dc:format>image/svg+xml</dc:format>
    <dc:creator>
     <cc:Agent>
      <dc:title>Matplotlib v3.10.8, https://matplotlib.org/</dc:title>
     </cc:Agent>
    </dc:creator>
   </cc:Work>
  </rdf:RDF>
 </metadata>
 <defs>
  <style type="text/css">*{stroke-linejoin: round; stroke-linecap: butt}</style>
 </defs>
 <g id="figure_1">
  <g id="patch_1">
   <path d="M 0 331.2 
L 648 331.2 
L 648 0 
L 0 0 
z
" style="fill: #ffffff"/>
  </g>
  <g id="axes_1">
   <g id="patch_2">
    <path d="M 157.3 289.24 
L 634.564397 289.24 
L 634.564397 26.88 
L 157.3 26.88 
z
" style="fill: #ffffff"/>
   </g>
   <g id="patch_3">
    <path d="M 157.3 38.805455 
L 269.684973 38.805455 
L 269.684973 71.70326 
L 157.3 71.70326 
z
" clip-path="url(#pce4cae6791)" style="fill: #64748b"/>
   </g>
   <g id="patch_4">
    <path d="M 157.3 79.927712 
L 611.837521 79.927712 
L 611.837521 112.825517 
L 157.3 112.825517 
z
" clip-path="url(#pce4cae6791)" style="fill: #cfe0c3"/>
   </g>
   <g id="patch_5">
    <path d="M 157.3 121.049969 
L 326.202373 121.049969 
L 326.202373 153.947774 
L 157.3 153.947774 
z
" clip-path="url(#pce4cae6791)" style="fill: #a7c69a"/>
   </g>
   <g id="patch_6">
    <path d="M 157.3 162.172226 
L 325.856942 162.172226 
L 325.856942 195.070031 
L 157.3 195.070031 
z
" clip-path="url(#pce4cae6791)" style="fill: #84ab72"/>
   </g>
   <g id="patch_7">
    <path d="M 157.3 203.294483 
L 323.999599 203.294483 
L 323.999599 236.192288 
L 157.3 236.192288 
z
" clip-path="url(#pce4cae6791)" style="fill: #6b9457"/>
   </g>
   <g id="patch_8">
    <path d="M 157.3 244.41674 
L 260.664435 244.41674 
L 260.664435 277.314545 
L 157.3 277.314545 
z
" clip-path="url(#pce4cae6791)" style="fill: #4d7f37"/>
   </g>
   <g id="matplotlib.axis_1">
    <g id="xtick_1">
     <g id="line2d_1">
      <path d="M 157.3 289.24 
L 157.3 26.88 
" clip-path="url(#pce4cae6791)" style="fill: none; stroke: #b0b0b0; stroke-opacity: 0.3; stroke-width: 0.8; stroke-linecap: square"/>
     </g>
     <g id="line2d_2">
      <defs>
       <path id="m88dba3511e" d="M 0 0 
L 0 3.5 
" style="stroke: #000000; stroke-width: 0.8"/>
      </defs>
      <g>
       <use xlink:href="#m88dba3511e" x="157.3" y="289.24" style="stroke: #000000; stroke-width: 0.8"/>
      </g>
     </g>
     <g id="text_1">
      <!-- 0.0 -->
      <g transform="translate(149.348438 303.838437) scale(0.1 -0.1)">
       <defs>
        <path id="DejaVuSans-30" d="M 2034 4250 
Q 1547 4250 1301 3770 
Q 1056 3291 1056 2328 
Q 1056 1369 1301 889 
Q 1547 409 2034 409 
Q 2525 409 2770 889 
Q 3016 1369 3016 2328 
Q 3016 3291 2770 3770 
Q 2525 4250 2034 4250 
z
M 2034 4750 
Q 2819 4750 3233 4129 
Q 3647 3509 3647 2328 
Q 3647 1150 3233 529 
Q 2819 -91 2034 -91 
Q 1250 -91 836 529 
Q 422 1150 422 2328 
Q 422 3509 836 4129 
Q 1250 4750 2034 4750 
z
" transform="scale(0.015625)"/>
        <path id="DejaVuSans-2e" d="M 684 794 
L 1344 794 
L 1344 0 
L 684 0 
L 684 794 
z
" transform="scale(0.015625)"/>
       </defs>
       <use xlink:href="#DejaVuSans-30"/>
       <use xlink:href="#DejaVuSans-2e" transform="translate(63.623047 0)"/>
       <use xlink:href="#DejaVuSans-30" transform="translate(95.410156 0)"/>
      </g>
     </g>
    </g>
    <g id="xtick_2">
     <g id="line2d_3">
      <path d="M 216.324952 289.24 
L 216.324952 26.88 
" clip-path="url(#pce4cae6791)" style="fill: none; stroke: #b0b0b0; stroke-opacity: 0.3; stroke-width: 0.8; stroke-linecap: square"/>
     </g>
     <g id="line2d_4">
      <g>
       <use xlink:href="#m88dba3511e" x="216.324952" y="289.24" style="stroke: #000000; stroke-width: 0.8"/>
      </g>
     </g>
     <g id="text_2">
      <!-- 0.2 -->
      <g transform="translate(208.37339 303.838437) scale(0.1 -0.1)">
       <defs>
        <path id="DejaVuSans-32" d="M 1228 531 
L 3431 531 
L 3431 0 
L 469 0 
L 469 531 
Q 828 903 1448 1529 
Q 2069 2156 2228 2338 
Q 2531 2678 2651 2914 
Q 2772 3150 2772 3378 
Q 2772 3750 2511 3984 
Q 2250 4219 1831 4219 
Q 1534 4219 1204 4116 
Q 875 4013 500 3803 
L 500 4441 
Q 881 4594 1212 4672 
Q 1544 4750 1819 4750 
Q 2544 4750 2975 4387 
Q 3406 4025 3406 3419 
Q 3406 3131 3298 2873 
Q 3191 2616 2906 2266 
Q 2828 2175 2409 1742 
Q 1991 1309 1228 531 
z
" transform="scale(0.015625)"/>
       </defs>
       <use xlink:href="#DejaVuSans-30"/>
       <use xlink:href="#DejaVuSans-2e" transform="translate(63.623047 0)"/>
       <use xlink:href="#DejaVuSans-32" transform="translate(95.410156 0)"/>
      </g>
     </g>
    </g>
    <g id="xtick_3">
     <g id="line2d_5">
      <path d="M 275.349905 289.24 
L 275.349905 26.88 
" clip-path="url(#pce4cae6791)" style="fill: none; stroke: #b0b0b0; stroke-opacity: 0.3; stroke-width: 0.8; stroke-linecap: square"/>
     </g>
     <g id="line2d_6">
      <g>
       <use xlink:href="#m88dba3511e" x="275.349905" y="289.24" style="stroke: #000000; stroke-width: 0.8"/>
      </g>
     </g>
     <g id="text_3">
      <!-- 0.4 -->
      <g transform="translate(267.398342 303.838437) scale(0.1 -0.1)">
       <defs>
        <path id="DejaVuSans-34" d="M 2419 4116 
L 825 1625 
L 2419 1625 
L 2419 4116 
z
M 2253 4666 
L 3047 4666 
L 3047 1625 
L 3713 1625 
L 3713 1100 
L 3047 1100 
L 3047 0 
L 2419 0 
L 2419 1100 
L 313 1100 
L 313 1709 
L 2253 4666 
z
" transform="scale(0.015625)"/>
       </defs>
       <use xlink:href="#DejaVuSans-30"/>
       <use xlink:href="#DejaVuSans-2e" transform="translate(63.623047 0)"/>
       <use xlink:href="#DejaVuSans-34" transform="translate(95.410156 0)"/>
      </g>
     </g>
    </g>
    <g id="xtick_4">
     <g id="line2d_7">
      <path d="M 334.374857 289.24 
L 334.374857 26.88 
" clip-path="url(#pce4cae6791)" style="fill: none; stroke: #b0b0b0; stroke-opacity: 0.3; stroke-width: 0.8; stroke-linecap: square"/>
     </g>
     <g id="line2d_8">
      <g>
       <use xlink:href="#m88dba3511e" x="334.374857" y="289.24" style="stroke: #000000; stroke-width: 0.8"/>
      </g>
     </g>
     <g id="text_4">
      <!-- 0.6 -->
      <g transform="translate(326.423295 303.838437) scale(0.1 -0.1)">
       <defs>
        <path id="DejaVuSans-36" d="M 2113 2584 
Q 1688 2584 1439 2293 
Q 1191 2003 1191 1497 
Q 1191 994 1439 701 
Q 1688 409 2113 409 
Q 2538 409 2786 701 
Q 3034 994 3034 1497 
Q 3034 2003 2786 2293 
Q 2538 2584 2113 2584 
z
M 3366 4563 
L 3366 3988 
Q 3128 4100 2886 4159 
Q 2644 4219 2406 4219 
Q 1781 4219 1451 3797 
Q 1122 3375 1075 2522 
Q 1259 2794 1537 2939 
Q 1816 3084 2150 3084 
Q 2853 3084 3261 2657 
Q 3669 2231 3669 1497 
Q 3669 778 3244 343 
Q 2819 -91 2113 -91 
Q 1303 -91 875 529 
Q 447 1150 447 2328 
Q 447 3434 972 4092 
Q 1497 4750 2381 4750 
Q 2619 4750 2861 4703 
Q 3103 4656 3366 4563 
z
" transform="scale(0.015625)"/>
       </defs>
       <use xlink:href="#DejaVuSans-30"/>
       <use xlink:href="#DejaVuSans-2e" transform="translate(63.623047 0)"/>
       <use xlink:href="#DejaVuSans-36" transform="translate(95.410156 0)"/>
      </g>
     </g>
    </g>
    <g id="xtick_5">
     <g id="line2d_9">
      <path d="M 393.39981 289.24 
L 393.39981 26.88 
" clip-path="url(#pce4cae6791)" style="fill: none; stroke: #b0b0b0; stroke-opacity: 0.3; stroke-width: 0.8; stroke-linecap: square"/>
     </g>
     <g id="line2d_10">
      <g>
       <use xlink:href="#m88dba3511e" x="393.39981" y="289.24" style="stroke: #000000; stroke-width: 0.8"/>
      </g>
     </g>
     <g id="text_5">
      <!-- 0.8 -->
      <g transform="translate(385.448247 303.838437) scale(0.1 -0.1)">
       <defs>
        <path id="DejaVuSans-38" d="M 2034 2216 
Q 1584 2216 1326 1975 
Q 1069 1734 1069 1313 
Q 1069 891 1326 650 
Q 1584 409 2034 409 
Q 2484 409 2743 651 
Q 3003 894 3003 1313 
Q 3003 1734 2745 1975 
Q 2488 2216 2034 2216 
z
M 1403 2484 
Q 997 2584 770 2862 
Q 544 3141 544 3541 
Q 544 4100 942 4425 
Q 1341 4750 2034 4750 
Q 2731 4750 3128 4425 
Q 3525 4100 3525 3541 
Q 3525 3141 3298 2862 
Q 3072 2584 2669 2484 
Q 3125 2378 3379 2068 
Q 3634 1759 3634 1313 
Q 3634 634 3220 271 
Q 2806 -91 2034 -91 
Q 1263 -91 848 271 
Q 434 634 434 1313 
Q 434 1759 690 2068 
Q 947 2378 1403 2484 
z
M 1172 3481 
Q 1172 3119 1398 2916 
Q 1625 2713 2034 2713 
Q 2441 2713 2670 2916 
Q 2900 3119 2900 3481 
Q 2900 3844 2670 4047 
Q 2441 4250 2034 4250 
Q 1625 4250 1398 4047 
Q 1172 3844 1172 3481 
z
" transform="scale(0.015625)"/>
       </defs>
       <use xlink:href="#DejaVuSans-30"/>
       <use xlink:href="#DejaVuSans-2e" transform="translate(63.623047 0)"/>
       <use xlink:href="#DejaVuSans-38" transform="translate(95.410156 0)"/>
      </g>
     </g>
    </g>
    <g id="xtick_6">
     <g id="line2d_11">
      <path d="M 452.424762 289.24 
L 452.424762 26.88 
" clip-path="url(#pce4cae6791)" style="fill: none; stroke: #b0b0b0; stroke-opacity: 0.3; stroke-width: 0.8; stroke-linecap: square"/>
     </g>
     <g id="line2d_12">
      <g>
       <use xlink:href="#m88dba3511e" x="452.424762" y="289.24" style="stroke: #000000; stroke-width: 0.8"/>
      </g>
     </g>
     <g id="text_6">
      <!-- 1.0 -->
      <g transform="translate(444.473199 303.838437) scale(0.1 -0.1)">
       <defs>
        <path id="DejaVuSans-31" d="M 794 531 
L 1825 531 
L 1825 4091 
L 703 3866 
L 703 4441 
L 1819 4666 
L 2450 4666 
L 2450 531 
L 3481 531 
L 3481 0 
L 794 0 
L 794 531 
z
" transform="scale(0.015625)"/>
       </defs>
       <use xlink:href="#DejaVuSans-31"/>
       <use xlink:href="#DejaVuSans-2e" transform="translate(63.623047 0)"/>
       <use xlink:href="#DejaVuSans-30" transform="translate(95.410156 0)"/>
      </g>
     </g>
    </g>
    <g id="xtick_7">
     <g id="line2d_13">
      <path d="M 511.449714 289.24 
L 511.449714 26.88 
" clip-path="url(#pce4cae6791)" style="fill: none; stroke: #b0b0b0; stroke-opacity: 0.3; stroke-width: 0.8; stroke-linecap: square"/>
     </g>
     <g id="line2d_14">
      <g>
       <use xlink:href="#m88dba3511e" x="511.449714" y="289.24" style="stroke: #000000; stroke-width: 0.8"/>
      </g>
     </g>
     <g id="text_7">
      <!-- 1.2 -->
      <g transform="translate(503.498152 303.838437) scale(0.1 -0.1)">
       <use xlink:href="#DejaVuSans-31"/>
       <use xlink:href="#DejaVuSans-2e" transform="translate(63.623047 0)"/>
       <use xlink:href="#DejaVuSans-32" transform="translate(95.410156 0)"/>
      </g>
     </g>
    </g>
    <g id="xtick_8">
     <g id="line2d_15">
      <path d="M 570.474667 289.24 
L 570.474667 26.88 
" clip-path="url(#pce4cae6791)" style="fill: none; stroke: #b0b0b0; stroke-opacity: 0.3; stroke-width: 0.8; stroke-linecap: square"/>
     </g>
     <g id="line2d_16">
      <g>
       <use xlink:href="#m88dba3511e" x="570.474667" y="289.24" style="stroke: #000000; stroke-width: 0.8"/>
      </g>
     </g>
     <g id="text_8">
      <!-- 1.4 -->
      <g transform="translate(562.523104 303.838437) scale(0.1 -0.1)">
       <use xlink:href="#DejaVuSans-31"/>
       <use xlink:href="#DejaVuSans-2e" transform="translate(63.623047 0)"/>
       <use xlink:href="#DejaVuSans-34" transform="translate(95.410156 0)"/>
      </g>
     </g>
    </g>
    <g id="xtick_9">
     <g id="line2d_17">
      <path d="M 629.499619 289.24 
L 629.499619 26.88 
" clip-path="url(#pce4cae6791)" style="fill: none; stroke: #b0b0b0; stroke-opacity: 0.3; stroke-width: 0.8; stroke-linecap: square"/>
     </g>
     <g id="line2d_18">
      <g>
       <use xlink:href="#m88dba3511e" x="629.499619" y="289.24" style="stroke: #000000; stroke-width: 0.8"/>
      </g>
     </g>
     <g id="text_9">
      <!-- 1.6 -->
      <g transform="translate(621.548057 303.838437) scale(0.1 -0.1)">
       <use xlink:href="#DejaVuSans-31"/>
       <use xlink:href="#DejaVuSans-2e" transform="translate(63.623047 0)"/>
       <use xlink:href="#DejaVuSans-36" transform="translate(95.410156 0)"/>
      </g>
     </g>
    </g>
    <g id="text_10">
     <!-- seconds (lower is better) -->
     <g transform="translate(333.859542 317.516562) scale(0.1 -0.1)">
      <defs>
       <path id="DejaVuSans-73" d="M 2834 3397 
L 2834 2853 
Q 2591 2978 2328 3040 
Q 2066 3103 1784 3103 
Q 1356 3103 1142 2972 
Q 928 2841 928 2578 
Q 928 2378 1081 2264 
Q 1234 2150 1697 2047 
L 1894 2003 
Q 2506 1872 2764 1633 
Q 3022 1394 3022 966 
Q 3022 478 2636 193 
Q 2250 -91 1575 -91 
Q 1294 -91 989 -36 
Q 684 19 347 128 
L 347 722 
Q 666 556 975 473 
Q 1284 391 1588 391 
Q 1994 391 2212 530 
Q 2431 669 2431 922 
Q 2431 1156 2273 1281 
Q 2116 1406 1581 1522 
L 1381 1569 
Q 847 1681 609 1914 
Q 372 2147 372 2553 
Q 372 3047 722 3315 
Q 1072 3584 1716 3584 
Q 2034 3584 2315 3537 
Q 2597 3491 2834 3397 
z
" transform="scale(0.015625)"/>
       <path id="DejaVuSans-65" d="M 3597 1894 
L 3597 1613 
L 953 1613 
Q 991 1019 1311 708 
Q 1631 397 2203 397 
Q 2534 397 2845 478 
Q 3156 559 3463 722 
L 3463 178 
Q 3153 47 2828 -22 
Q 2503 -91 2169 -91 
Q 1331 -91 842 396 
Q 353 884 353 1716 
Q 353 2575 817 3079 
Q 1281 3584 2069 3584 
Q 2775 3584 3186 3129 
Q 3597 2675 3597 1894 
z
M 3022 2063 
Q 3016 2534 2758 2815 
Q 2500 3097 2075 3097 
Q 1594 3097 1305 2825 
Q 1016 2553 972 2059 
L 3022 2063 
z
" transform="scale(0.015625)"/>
       <path id="DejaVuSans-63" d="M 3122 3366 
L 3122 2828 
Q 2878 2963 2633 3030 
Q 2388 3097 2138 3097 
Q 1578 3097 1268 2742 
Q 959 2388 959 1747 
Q 959 1106 1268 751 
Q 1578 397 2138 397 
Q 2388 397 2633 464 
Q 2878 531 3122 666 
L 3122 134 
Q 2881 22 2623 -34 
Q 2366 -91 2075 -91 
Q 1284 -91 818 406 
Q 353 903 353 1747 
Q 353 2603 823 3093 
Q 1294 3584 2113 3584 
Q 2378 3584 2631 3529 
Q 2884 3475 3122 3366 
z
" transform="scale(0.015625)"/>
       <path id="DejaVuSans-6f" d="M 1959 3097 
Q 1497 3097 1228 2736 
Q 959 2375 959 1747 
Q 959 1119 1226 758 
Q 1494 397 1959 397 
Q 2419 397 2687 759 
Q 2956 1122 2956 1747 
Q 2956 2369 2687 2733 
Q 2419 3097 1959 3097 
z
M 1959 3584 
Q 2709 3584 3137 3096 
Q 3566 2609 3566 1747 
Q 3566 888 3137 398 
Q 2709 -91 1959 -91 
Q 1206 -91 779 398 
Q 353 888 353 1747 
Q 353 2609 779 3096 
Q 1206 3584 1959 3584 
z
" transform="scale(0.015625)"/>
       <path id="DejaVuSans-6e" d="M 3513 2113 
L 3513 0 
L 2938 0 
L 2938 2094 
Q 2938 2591 2744 2837 
Q 2550 3084 2163 3084 
Q 1697 3084 1428 2787 
Q 1159 2491 1159 1978 
L 1159 0 
L 581 0 
L 581 3500 
L 1159 3500 
L 1159 2956 
Q 1366 3272 1645 3428 
Q 1925 3584 2291 3584 
Q 2894 3584 3203 3211 
Q 3513 2838 3513 2113 
z
" transform="scale(0.015625)"/>
       <path id="DejaVuSans-64" d="M 2906 2969 
L 2906 4863 
L 3481 4863 
L 3481 0 
L 2906 0 
L 2906 525 
Q 2725 213 2448 61 
Q 2172 -91 1784 -91 
Q 1150 -91 751 415 
Q 353 922 353 1747 
Q 353 2572 751 3078 
Q 1150 3584 1784 3584 
Q 2172 3584 2448 3432 
Q 2725 3281 2906 2969 
z
M 947 1747 
Q 947 1113 1208 752 
Q 1469 391 1925 391 
Q 2381 391 2643 752 
Q 2906 1113 2906 1747 
Q 2906 2381 2643 2742 
Q 2381 3103 1925 3103 
Q 1469 3103 1208 2742 
Q 947 2381 947 1747 
z
" transform="scale(0.015625)"/>
       <path id="DejaVuSans-20" transform="scale(0.015625)"/>
       <path id="DejaVuSans-28" d="M 1984 4856 
Q 1566 4138 1362 3434 
Q 1159 2731 1159 2009 
Q 1159 1288 1364 580 
Q 1569 -128 1984 -844 
L 1484 -844 
Q 1016 -109 783 600 
Q 550 1309 550 2009 
Q 550 2706 781 3412 
Q 1013 4119 1484 4856 
L 1984 4856 
z
" transform="scale(0.015625)"/>
       <path id="DejaVuSans-6c" d="M 603 4863 
L 1178 4863 
L 1178 0 
L 603 0 
L 603 4863 
z
" transform="scale(0.015625)"/>
       <path id="DejaVuSans-77" d="M 269 3500 
L 844 3500 
L 1563 769 
L 2278 3500 
L 2956 3500 
L 3675 769 
L 4391 3500 
L 4966 3500 
L 4050 0 
L 3372 0 
L 2619 2869 
L 1863 0 
L 1184 0 
L 269 3500 
z
" transform="scale(0.015625)"/>
       <path id="DejaVuSans-72" d="M 2631 2963 
Q 2534 3019 2420 3045 
Q 2306 3072 2169 3072 
Q 1681 3072 1420 2755 
Q 1159 2438 1159 1844 
L 1159 0 
L 581 0 
L 581 3500 
L 1159 3500 
L 1159 2956 
Q 1341 3275 1631 3429 
Q 1922 3584 2338 3584 
Q 2397 3584 2469 3576 
Q 2541 3569 2628 3553 
L 2631 2963 
z
" transform="scale(0.015625)"/>
       <path id="DejaVuSans-69" d="M 603 3500 
L 1178 3500 
L 1178 0 
L 603 0 
L 603 3500 
z
M 603 4863 
L 1178 4863 
L 1178 4134 
L 603 4134 
L 603 4863 
z
" transform="scale(0.015625)"/>
       <path id="DejaVuSans-62" d="M 3116 1747 
Q 3116 2381 2855 2742 
Q 2594 3103 2138 3103 
Q 1681 3103 1420 2742 
Q 1159 2381 1159 1747 
Q 1159 1113 1420 752 
Q 1681 391 2138 391 
Q 2594 391 2855 752 
Q 3116 1113 3116 1747 
z
M 1159 2969 
Q 1341 3281 1617 3432 
Q 1894 3584 2278 3584 
Q 2916 3584 3314 3078 
Q 3713 2572 3713 1747 
Q 3713 922 3314 415 
Q 2916 -91 2278 -91 
Q 1894 -91 1617 61 
Q 1341 213 1159 525 
L 1159 0 
L 581 0 
L 581 4863 
L 1159 4863 
L 1159 2969 
z
" transform="scale(0.015625)"/>
       <path id="DejaVuSans-74" d="M 1172 4494 
L 1172 3500 
L 2356 3500 
L 2356 3053 
L 1172 3053 
L 1172 1153 
Q 1172 725 1289 603 
Q 1406 481 1766 481 
L 2356 481 
L 2356 0 
L 1766 0 
Q 1100 0 847 248 
Q 594 497 594 1153 
L 594 3053 
L 172 3053 
L 172 3500 
L 594 3500 
L 594 4494 
L 1172 4494 
z
" transform="scale(0.015625)"/>
       <path id="DejaVuSans-29" d="M 513 4856 
L 1013 4856 
Q 1481 4119 1714 3412 
Q 1947 2706 1947 2009 
Q 1947 1309 1714 600 
Q 1481 -109 1013 -844 
L 513 -844 
Q 928 -128 1133 580 
Q 1338 1288 1338 2009 
Q 1338 2731 1133 3434 
Q 928 4138 513 4856 
z
" transform="scale(0.015625)"/>
      </defs>
      <use xlink:href="#DejaVuSans-73"/>
      <use xlink:href="#DejaVuSans-65" transform="translate(52.099609 0)"/>
      <use xlink:href="#DejaVuSans-63" transform="translate(113.623047 0)"/>
      <use xlink:href="#DejaVuSans-6f" transform="translate(168.603516 0)"/>
      <use xlink:href="#DejaVuSans-6e" transform="translate(229.785156 0)"/>
      <use xlink:href="#DejaVuSans-64" transform="translate(293.164062 0)"/>
      <use xlink:href="#DejaVuSans-73" transform="translate(356.640625 0)"/>
      <use xlink:href="#DejaVuSans-20" transform="translate(408.740234 0)"/>
      <use xlink:href="#DejaVuSans-28" transform="translate(440.527344 0)"/>
      <use xlink:href="#DejaVuSans-6c" transform="translate(479.541016 0)"/>
      <use xlink:href="#DejaVuSans-6f" transform="translate(507.324219 0)"/>
      <use xlink:href="#DejaVuSans-77" transform="translate(568.505859 0)"/>
      <use xlink:href="#DejaVuSans-65" transform="translate(650.292969 0)"/>
      <use xlink:href="#DejaVuSans-72" transform="translate(711.816406 0)"/>
      <use xlink:href="#DejaVuSans-20" transform="translate(752.929688 0)"/>
      <use xlink:href="#DejaVuSans-69" transform="translate(784.716797 0)"/>
      <use xlink:href="#DejaVuSans-73" transform="translate(812.5 0)"/>
      <use xlink:href="#DejaVuSans-20" transform="translate(864.599609 0)"/>
      <use xlink:href="#DejaVuSans-62" transform="translate(896.386719 0)"/>
      <use xlink:href="#DejaVuSans-65" transform="translate(959.863281 0)"/>
      <use xlink:href="#DejaVuSans-74" transform="translate(1021.386719 0)"/>
      <use xlink:href="#DejaVuSans-74" transform="translate(1060.595703 0)"/>
      <use xlink:href="#DejaVuSans-65" transform="translate(1099.804688 0)"/>
      <use xlink:href="#DejaVuSans-72" transform="translate(1161.328125 0)"/>
      <use xlink:href="#DejaVuSans-29" transform="translate(1202.441406 0)"/>
     </g>
    </g>
   </g>
   <g id="matplotlib.axis_2">
    <g id="ytick_1">
     <g id="line2d_19">
      <defs>
       <path id="m66e683f562" d="M 0 0 
L -3.5 0 
" style="stroke: #000000; stroke-width: 0.8"/>
      </defs>
      <g>
       <use xlink:href="#m66e683f562" x="157.3" y="55.254357" style="stroke: #000000; stroke-width: 0.8"/>
      </g>
     </g>
     <g id="text_11">
      <!-- NumPy — 1 thread -->
      <g transform="translate(65.539688 58.673654) scale(0.09 -0.09)">
       <defs>
        <path id="DejaVuSans-4e" d="M 628 4666 
L 1478 4666 
L 3547 763 
L 3547 4666 
L 4159 4666 
L 4159 0 
L 3309 0 
L 1241 3903 
L 1241 0 
L 628 0 
L 628 4666 
z
" transform="scale(0.015625)"/>
        <path id="DejaVuSans-75" d="M 544 1381 
L 544 3500 
L 1119 3500 
L 1119 1403 
Q 1119 906 1312 657 
Q 1506 409 1894 409 
Q 2359 409 2629 706 
Q 2900 1003 2900 1516 
L 2900 3500 
L 3475 3500 
L 3475 0 
L 2900 0 
L 2900 538 
Q 2691 219 2414 64 
Q 2138 -91 1772 -91 
Q 1169 -91 856 284 
Q 544 659 544 1381 
z
M 1991 3584 
L 1991 3584 
z
" transform="scale(0.015625)"/>
        <path id="DejaVuSans-6d" d="M 3328 2828 
Q 3544 3216 3844 3400 
Q 4144 3584 4550 3584 
Q 5097 3584 5394 3201 
Q 5691 2819 5691 2113 
L 5691 0 
L 5113 0 
L 5113 2094 
Q 5113 2597 4934 2840 
Q 4756 3084 4391 3084 
Q 3944 3084 3684 2787 
Q 3425 2491 3425 1978 
L 3425 0 
L 2847 0 
L 2847 2094 
Q 2847 2600 2669 2842 
Q 2491 3084 2119 3084 
Q 1678 3084 1418 2786 
Q 1159 2488 1159 1978 
L 1159 0 
L 581 0 
L 581 3500 
L 1159 3500 
L 1159 2956 
Q 1356 3278 1631 3431 
Q 1906 3584 2284 3584 
Q 2666 3584 2933 3390 
Q 3200 3197 3328 2828 
z
" transform="scale(0.015625)"/>
        <path id="DejaVuSans-50" d="M 1259 4147 
L 1259 2394 
L 2053 2394 
Q 2494 2394 2734 2622 
Q 2975 2850 2975 3272 
Q 2975 3691 2734 3919 
Q 2494 4147 2053 4147 
L 1259 4147 
z
M 628 4666 
L 2053 4666 
Q 2838 4666 3239 4311 
Q 3641 3956 3641 3272 
Q 3641 2581 3239 2228 
Q 2838 1875 2053 1875 
L 1259 1875 
L 1259 0 
L 628 0 
L 628 4666 
z
" transform="scale(0.015625)"/>
        <path id="DejaVuSans-79" d="M 2059 -325 
Q 1816 -950 1584 -1140 
Q 1353 -1331 966 -1331 
L 506 -1331 
L 506 -850 
L 844 -850 
Q 1081 -850 1212 -737 
Q 1344 -625 1503 -206 
L 1606 56 
L 191 3500 
L 800 3500 
L 1894 763 
L 2988 3500 
L 3597 3500 
L 2059 -325 
z
" transform="scale(0.015625)"/>
        <path id="DejaVuSans-2014" d="M 313 1978 
L 6088 1978 
L 6088 1528 
L 313 1528 
L 313 1978 
z
" transform="scale(0.015625)"/>
        <path id="DejaVuSans-68" d="M 3513 2113 
L 3513 0 
L 2938 0 
L 2938 2094 
Q 2938 2591 2744 2837 
Q 2550 3084 2163 3084 
Q 1697 3084 1428 2787 
Q 1159 2491 1159 1978 
L 1159 0 
L 581 0 
L 581 4863 
L 1159 4863 
L 1159 2956 
Q 1366 3272 1645 3428 
Q 1925 3584 2291 3584 
Q 2894 3584 3203 3211 
Q 3513 2838 3513 2113 
z
" transform="scale(0.015625)"/>
        <path id="DejaVuSans-61" d="M 2194 1759 
Q 1497 1759 1228 1600 
Q 959 1441 959 1056 
Q 959 750 1161 570 
Q 1363 391 1709 391 
Q 2188 391 2477 730 
Q 2766 1069 2766 1631 
L 2766 1759 
L 2194 1759 
z
M 3341 1997 
L 3341 0 
L 2766 0 
L 2766 531 
Q 2569 213 2275 61 
Q 1981 -91 1556 -91 
Q 1019 -91 701 211 
Q 384 513 384 1019 
Q 384 1609 779 1909 
Q 1175 2209 1959 2209 
L 2766 2209 
L 2766 2266 
Q 2766 2663 2505 2880 
Q 2244 3097 1772 3097 
Q 1472 3097 1187 3025 
Q 903 2953 641 2809 
L 641 3341 
Q 956 3463 1253 3523 
Q 1550 3584 1831 3584 
Q 2591 3584 2966 3190 
Q 3341 2797 3341 1997 
z
" transform="scale(0.015625)"/>
       </defs>
       <use xlink:href="#DejaVuSans-4e"/>
       <use xlink:href="#DejaVuSans-75" transform="translate(74.804688 0)"/>
       <use xlink:href="#DejaVuSans-6d" transform="translate(138.183594 0)"/>
       <use xlink:href="#DejaVuSans-50" transform="translate(235.595703 0)"/>
       <use xlink:href="#DejaVuSans-79" transform="translate(295.898438 0)"/>
       <use xlink:href="#DejaVuSans-20" transform="translate(355.078125 0)"/>
       <use xlink:href="#DejaVuSans-2014" transform="translate(386.865234 0)"/>
       <use xlink:href="#DejaVuSans-20" transform="translate(486.865234 0)"/>
       <use xlink:href="#DejaVuSans-31" transform="translate(518.652344 0)"/>
       <use xlink:href="#DejaVuSans-20" transform="translate(582.275391 0)"/>
       <use xlink:href="#DejaVuSans-74" transform="translate(614.0625 0)"/>
       <use xlink:href="#DejaVuSans-68" transform="translate(653.271484 0)"/>
       <use xlink:href="#DejaVuSans-72" transform="translate(716.650391 0)"/>
       <use xlink:href="#DejaVuSans-65" transform="translate(755.513672 0)"/>
       <use xlink:href="#DejaVuSans-61" transform="translate(817.037109 0)"/>
       <use xlink:href="#DejaVuSans-64" transform="translate(878.316406 0)"/>
      </g>
     </g>
    </g>
    <g id="ytick_2">
     <g id="line2d_20">
      <g>
       <use xlink:href="#m66e683f562" x="157.3" y="96.376614" style="stroke: #000000; stroke-width: 0.8"/>
      </g>
     </g>
     <g id="text_12">
      <!-- sx: 1 wide inline chain (1 core) -->
      <g transform="translate(12.195 99.795911) scale(0.09 -0.09)">
       <defs>
        <path id="DejaVuSans-78" d="M 3513 3500 
L 2247 1797 
L 3578 0 
L 2900 0 
L 1881 1375 
L 863 0 
L 184 0 
L 1544 1831 
L 300 3500 
L 978 3500 
L 1906 2253 
L 2834 3500 
L 3513 3500 
z
" transform="scale(0.015625)"/>
        <path id="DejaVuSans-3a" d="M 750 794 
L 1409 794 
L 1409 0 
L 750 0 
L 750 794 
z
M 750 3309 
L 1409 3309 
L 1409 2516 
L 750 2516 
L 750 3309 
z
" transform="scale(0.015625)"/>
       </defs>
       <use xlink:href="#DejaVuSans-73"/>
       <use xlink:href="#DejaVuSans-78" transform="translate(52.099609 0)"/>
       <use xlink:href="#DejaVuSans-3a" transform="translate(111.279297 0)"/>
       <use xlink:href="#DejaVuSans-20" transform="translate(144.970703 0)"/>
       <use xlink:href="#DejaVuSans-31" transform="translate(176.757812 0)"/>
       <use xlink:href="#DejaVuSans-20" transform="translate(240.380859 0)"/>
       <use xlink:href="#DejaVuSans-77" transform="translate(272.167969 0)"/>
       <use xlink:href="#DejaVuSans-69" transform="translate(353.955078 0)"/>
       <use xlink:href="#DejaVuSans-64" transform="translate(381.738281 0)"/>
       <use xlink:href="#DejaVuSans-65" transform="translate(445.214844 0)"/>
       <use xlink:href="#DejaVuSans-20" transform="translate(506.738281 0)"/>
       <use xlink:href="#DejaVuSans-69" transform="translate(538.525391 0)"/>
       <use xlink:href="#DejaVuSans-6e" transform="translate(566.308594 0)"/>
       <use xlink:href="#DejaVuSans-6c" transform="translate(629.6875 0)"/>
       <use xlink:href="#DejaVuSans-69" transform="translate(657.470703 0)"/>
       <use xlink:href="#DejaVuSans-6e" transform="translate(685.253906 0)"/>
       <use xlink:href="#DejaVuSans-65" transform="translate(748.632812 0)"/>
       <use xlink:href="#DejaVuSans-20" transform="translate(810.15625 0)"/>
       <use xlink:href="#DejaVuSans-63" transform="translate(841.943359 0)"/>
       <use xlink:href="#DejaVuSans-68" transform="translate(896.923828 0)"/>
       <use xlink:href="#DejaVuSans-61" transform="translate(960.302734 0)"/>
       <use xlink:href="#DejaVuSans-69" transform="translate(1021.582031 0)"/>
       <use xlink:href="#DejaVuSans-6e" transform="translate(1049.365234 0)"/>
       <use xlink:href="#DejaVuSans-20" transform="translate(1112.744141 0)"/>
       <use xlink:href="#DejaVuSans-28" transform="translate(1144.53125 0)"/>
       <use xlink:href="#DejaVuSans-31" transform="translate(1183.544922 0)"/>
       <use xlink:href="#DejaVuSans-20" transform="translate(1247.167969 0)"/>
       <use xlink:href="#DejaVuSans-63" transform="translate(1278.955078 0)"/>
       <use xlink:href="#DejaVuSans-6f" transform="translate(1333.935547 0)"/>
       <use xlink:href="#DejaVuSans-72" transform="translate(1395.117188 0)"/>
       <use xlink:href="#DejaVuSans-65" transform="translate(1433.980469 0)"/>
       <use xlink:href="#DejaVuSans-29" transform="translate(1495.503906 0)"/>
      </g>
     </g>
    </g>
    <g id="ytick_3">
     <g id="line2d_21">
      <g>
       <use xlink:href="#m66e683f562" x="157.3" y="137.498871" style="stroke: #000000; stroke-width: 0.8"/>
      </g>
     </g>
     <g id="text_13">
      <!-- sx: N chains, spawn-per-step -->
      <g transform="translate(20.697188 140.918168) scale(0.09 -0.09)">
       <defs>
        <path id="DejaVuSans-2c" d="M 750 794 
L 1409 794 
L 1409 256 
L 897 -744 
L 494 -744 
L 750 256 
L 750 794 
z
" transform="scale(0.015625)"/>
        <path id="DejaVuSans-70" d="M 1159 525 
L 1159 -1331 
L 581 -1331 
L 581 3500 
L 1159 3500 
L 1159 2969 
Q 1341 3281 1617 3432 
Q 1894 3584 2278 3584 
Q 2916 3584 3314 3078 
Q 3713 2572 3713 1747 
Q 3713 922 3314 415 
Q 2916 -91 2278 -91 
Q 1894 -91 1617 61 
Q 1341 213 1159 525 
z
M 3116 1747 
Q 3116 2381 2855 2742 
Q 2594 3103 2138 3103 
Q 1681 3103 1420 2742 
Q 1159 2381 1159 1747 
Q 1159 1113 1420 752 
Q 1681 391 2138 391 
Q 2594 391 2855 752 
Q 3116 1113 3116 1747 
z
" transform="scale(0.015625)"/>
        <path id="DejaVuSans-2d" d="M 313 2009 
L 1997 2009 
L 1997 1497 
L 313 1497 
L 313 2009 
z
" transform="scale(0.015625)"/>
       </defs>
       <use xlink:href="#DejaVuSans-73"/>
       <use xlink:href="#DejaVuSans-78" transform="translate(52.099609 0)"/>
       <use xlink:href="#DejaVuSans-3a" transform="translate(111.279297 0)"/>
       <use xlink:href="#DejaVuSans-20" transform="translate(144.970703 0)"/>
       <use xlink:href="#DejaVuSans-4e" transform="translate(176.757812 0)"/>
       <use xlink:href="#DejaVuSans-20" transform="translate(251.5625 0)"/>
       <use xlink:href="#DejaVuSans-63" transform="translate(283.349609 0)"/>
       <use xlink:href="#DejaVuSans-68" transform="translate(338.330078 0)"/>
       <use xlink:href="#DejaVuSans-61" transform="translate(401.708984 0)"/>
       <use xlink:href="#DejaVuSans-69" transform="translate(462.988281 0)"/>
       <use xlink:href="#DejaVuSans-6e" transform="translate(490.771484 0)"/>
       <use xlink:href="#DejaVuSans-73" transform="translate(554.150391 0)"/>
       <use xlink:href="#DejaVuSans-2c" transform="translate(606.25 0)"/>
       <use xlink:href="#DejaVuSans-20" transform="translate(638.037109 0)"/>
       <use xlink:href="#DejaVuSans-73" transform="translate(669.824219 0)"/>
       <use xlink:href="#DejaVuSans-70" transform="translate(721.923828 0)"/>
       <use xlink:href="#DejaVuSans-61" transform="translate(785.400391 0)"/>
       <use xlink:href="#DejaVuSans-77" transform="translate(846.679688 0)"/>
       <use xlink:href="#DejaVuSans-6e" transform="translate(928.466797 0)"/>
       <use xlink:href="#DejaVuSans-2d" transform="translate(991.845703 0)"/>
       <use xlink:href="#DejaVuSans-70" transform="translate(1027.929688 0)"/>
       <use xlink:href="#DejaVuSans-65" transform="translate(1091.40625 0)"/>
       <use xlink:href="#DejaVuSans-72" transform="translate(1152.929688 0)"/>
       <use xlink:href="#DejaVuSans-2d" transform="translate(1187.667969 0)"/>
       <use xlink:href="#DejaVuSans-73" transform="translate(1223.751953 0)"/>
       <use xlink:href="#DejaVuSans-74" transform="translate(1275.851562 0)"/>
       <use xlink:href="#DejaVuSans-65" transform="translate(1315.060547 0)"/>
       <use xlink:href="#DejaVuSans-70" transform="translate(1376.583984 0)"/>
      </g>
     </g>
    </g>
    <g id="ytick_4">
     <g id="line2d_22">
      <g>
       <use xlink:href="#m66e683f562" x="157.3" y="178.621129" style="stroke: #000000; stroke-width: 0.8"/>
      </g>
     </g>
     <g id="text_14">
      <!-- sx: N chains, persistent-worker -->
      <g transform="translate(10.954688 182.040425) scale(0.09 -0.09)">
       <defs>
        <path id="DejaVuSans-6b" d="M 581 4863 
L 1159 4863 
L 1159 1991 
L 2875 3500 
L 3609 3500 
L 1753 1863 
L 3688 0 
L 2938 0 
L 1159 1709 
L 1159 0 
L 581 0 
L 581 4863 
z
" transform="scale(0.015625)"/>
       </defs>
       <use xlink:href="#DejaVuSans-73"/>
       <use xlink:href="#DejaVuSans-78" transform="translate(52.099609 0)"/>
       <use xlink:href="#DejaVuSans-3a" transform="translate(111.279297 0)"/>
       <use xlink:href="#DejaVuSans-20" transform="translate(144.970703 0)"/>
       <use xlink:href="#DejaVuSans-4e" transform="translate(176.757812 0)"/>
       <use xlink:href="#DejaVuSans-20" transform="translate(251.5625 0)"/>
       <use xlink:href="#DejaVuSans-63" transform="translate(283.349609 0)"/>
       <use xlink:href="#DejaVuSans-68" transform="translate(338.330078 0)"/>
       <use xlink:href="#DejaVuSans-61" transform="translate(401.708984 0)"/>
       <use xlink:href="#DejaVuSans-69" transform="translate(462.988281 0)"/>
       <use xlink:href="#DejaVuSans-6e" transform="translate(490.771484 0)"/>
       <use xlink:href="#DejaVuSans-73" transform="translate(554.150391 0)"/>
       <use xlink:href="#DejaVuSans-2c" transform="translate(606.25 0)"/>
       <use xlink:href="#DejaVuSans-20" transform="translate(638.037109 0)"/>
       <use xlink:href="#DejaVuSans-70" transform="translate(669.824219 0)"/>
       <use xlink:href="#DejaVuSans-65" transform="translate(733.300781 0)"/>
       <use xlink:href="#DejaVuSans-72" transform="translate(794.824219 0)"/>
       <use xlink:href="#DejaVuSans-73" transform="translate(835.9375 0)"/>
       <use xlink:href="#DejaVuSans-69" transform="translate(888.037109 0)"/>
       <use xlink:href="#DejaVuSans-73" transform="translate(915.820312 0)"/>
       <use xlink:href="#DejaVuSans-74" transform="translate(967.919922 0)"/>
       <use xlink:href="#DejaVuSans-65" transform="translate(1007.128906 0)"/>
       <use xlink:href="#DejaVuSans-6e" transform="translate(1068.652344 0)"/>
       <use xlink:href="#DejaVuSans-74" transform="translate(1132.03125 0)"/>
       <use xlink:href="#DejaVuSans-2d" transform="translate(1171.240234 0)"/>
       <use xlink:href="#DejaVuSans-77" transform="translate(1207.324219 0)"/>
       <use xlink:href="#DejaVuSans-6f" transform="translate(1289.111328 0)"/>
       <use xlink:href="#DejaVuSans-72" transform="translate(1350.292969 0)"/>
       <use xlink:href="#DejaVuSans-6b" transform="translate(1391.40625 0)"/>
       <use xlink:href="#DejaVuSans-65" transform="translate(1445.691406 0)"/>
       <use xlink:href="#DejaVuSans-72" transform="translate(1507.214844 0)"/>
      </g>
     </g>
    </g>
    <g id="ytick_5">
     <g id="line2d_23">
      <g>
       <use xlink:href="#m66e683f562" x="157.3" y="219.743386" style="stroke: #000000; stroke-width: 0.8"/>
      </g>
     </g>
     <g id="text_15">
      <!-- sx: N chains, inline (1 core) -->
      <g transform="translate(27.611719 223.162682) scale(0.09 -0.09)">
       <use xlink:href="#DejaVuSans-73"/>
       <use xlink:href="#DejaVuSans-78" transform="translate(52.099609 0)"/>
       <use xlink:href="#DejaVuSans-3a" transform="translate(111.279297 0)"/>
       <use xlink:href="#DejaVuSans-20" transform="translate(144.970703 0)"/>
       <use xlink:href="#DejaVuSans-4e" transform="translate(176.757812 0)"/>
       <use xlink:href="#DejaVuSans-20" transform="translate(251.5625 0)"/>
       <use xlink:href="#DejaVuSans-63" transform="translate(283.349609 0)"/>
       <use xlink:href="#DejaVuSans-68" transform="translate(338.330078 0)"/>
       <use xlink:href="#DejaVuSans-61" transform="translate(401.708984 0)"/>
       <use xlink:href="#DejaVuSans-69" transform="translate(462.988281 0)"/>
       <use xlink:href="#DejaVuSans-6e" transform="translate(490.771484 0)"/>
       <use xlink:href="#DejaVuSans-73" transform="translate(554.150391 0)"/>
       <use xlink:href="#DejaVuSans-2c" transform="translate(606.25 0)"/>
       <use xlink:href="#DejaVuSans-20" transform="translate(638.037109 0)"/>
       <use xlink:href="#DejaVuSans-69" transform="translate(669.824219 0)"/>
       <use xlink:href="#DejaVuSans-6e" transform="translate(697.607422 0)"/>
       <use xlink:href="#DejaVuSans-6c" transform="translate(760.986328 0)"/>
       <use xlink:href="#DejaVuSans-69" transform="translate(788.769531 0)"/>
       <use xlink:href="#DejaVuSans-6e" transform="translate(816.552734 0)"/>
       <use xlink:href="#DejaVuSans-65" transform="translate(879.931641 0)"/>
       <use xlink:href="#DejaVuSans-20" transform="translate(941.455078 0)"/>
       <use xlink:href="#DejaVuSans-28" transform="translate(973.242188 0)"/>
       <use xlink:href="#DejaVuSans-31" transform="translate(1012.255859 0)"/>
       <use xlink:href="#DejaVuSans-20" transform="translate(1075.878906 0)"/>
       <use xlink:href="#DejaVuSans-63" transform="translate(1107.666016 0)"/>
       <use xlink:href="#DejaVuSans-6f" transform="translate(1162.646484 0)"/>
       <use xlink:href="#DejaVuSans-72" transform="translate(1223.828125 0)"/>
       <use xlink:href="#DejaVuSans-65" transform="translate(1262.691406 0)"/>
       <use xlink:href="#DejaVuSans-29" transform="translate(1324.214844 0)"/>
      </g>
     </g>
    </g>
    <g id="ytick_6">
     <g id="line2d_24">
      <g>
       <use xlink:href="#m66e683f562" x="157.3" y="260.865643" style="stroke: #000000; stroke-width: 0.8"/>
      </g>
     </g>
     <g id="text_16">
      <!-- sx: ensemble, all cores -->
      <g transform="translate(47.130469 264.28494) scale(0.09 -0.09)">
       <use xlink:href="#DejaVuSans-73"/>
       <use xlink:href="#DejaVuSans-78" transform="translate(52.099609 0)"/>
       <use xlink:href="#DejaVuSans-3a" transform="translate(111.279297 0)"/>
       <use xlink:href="#DejaVuSans-20" transform="translate(144.970703 0)"/>
       <use xlink:href="#DejaVuSans-65" transform="translate(176.757812 0)"/>
       <use xlink:href="#DejaVuSans-6e" transform="translate(238.28125 0)"/>
       <use xlink:href="#DejaVuSans-73" transform="translate(301.660156 0)"/>
       <use xlink:href="#DejaVuSans-65" transform="translate(353.759766 0)"/>
       <use xlink:href="#DejaVuSans-6d" transform="translate(415.283203 0)"/>
       <use xlink:href="#DejaVuSans-62" transform="translate(512.695312 0)"/>
       <use xlink:href="#DejaVuSans-6c" transform="translate(576.171875 0)"/>
       <use xlink:href="#DejaVuSans-65" transform="translate(603.955078 0)"/>
       <use xlink:href="#DejaVuSans-2c" transform="translate(665.478516 0)"/>
       <use xlink:href="#DejaVuSans-20" transform="translate(697.265625 0)"/>
       <use xlink:href="#DejaVuSans-61" transform="translate(729.052734 0)"/>
       <use xlink:href="#DejaVuSans-6c" transform="translate(790.332031 0)"/>
       <use xlink:href="#DejaVuSans-6c" transform="translate(818.115234 0)"/>
       <use xlink:href="#DejaVuSans-20" transform="translate(845.898438 0)"/>
       <use xlink:href="#DejaVuSans-63" transform="translate(877.685547 0)"/>
       <use xlink:href="#DejaVuSans-6f" transform="translate(932.666016 0)"/>
       <use xlink:href="#DejaVuSans-72" transform="translate(993.847656 0)"/>
       <use xlink:href="#DejaVuSans-65" transform="translate(1032.710938 0)"/>
       <use xlink:href="#DejaVuSans-73" transform="translate(1094.234375 0)"/>
      </g>
     </g>
    </g>
   </g>
   <g id="patch_9">
    <path d="M 157.3 289.24 
L 157.3 26.88 
" style="fill: none; stroke: #000000; stroke-width: 0.8; stroke-linejoin: miter; stroke-linecap: square"/>
   </g>
   <g id="patch_10">
    <path d="M 634.564397 289.24 
L 634.564397 26.88 
" style="fill: none; stroke: #000000; stroke-width: 0.8; stroke-linejoin: miter; stroke-linecap: square"/>
   </g>
   <g id="patch_11">
    <path d="M 157.3 289.24 
L 634.564397 289.24 
" style="fill: none; stroke: #000000; stroke-width: 0.8; stroke-linejoin: miter; stroke-linecap: square"/>
   </g>
   <g id="patch_12">
    <path d="M 157.3 26.88 
L 634.564397 26.88 
" style="fill: none; stroke: #000000; stroke-width: 0.8; stroke-linejoin: miter; stroke-linecap: square"/>
   </g>
   <g id="text_17">
    <!-- Coupled OU chain (4 within-step-coupled components) — 10,000 paths × 2,000 steps -->
    <g transform="translate(138.059699 20.88) scale(0.12 -0.12)">
     <defs>
      <path id="DejaVuSans-43" d="M 4122 4306 
L 4122 3641 
Q 3803 3938 3442 4084 
Q 3081 4231 2675 4231 
Q 1875 4231 1450 3742 
Q 1025 3253 1025 2328 
Q 1025 1406 1450 917 
Q 1875 428 2675 428 
Q 3081 428 3442 575 
Q 3803 722 4122 1019 
L 4122 359 
Q 3791 134 3420 21 
Q 3050 -91 2638 -91 
Q 1578 -91 968 557 
Q 359 1206 359 2328 
Q 359 3453 968 4101 
Q 1578 4750 2638 4750 
Q 3056 4750 3426 4639 
Q 3797 4528 4122 4306 
z
" transform="scale(0.015625)"/>
      <path id="DejaVuSans-4f" d="M 2522 4238 
Q 1834 4238 1429 3725 
Q 1025 3213 1025 2328 
Q 1025 1447 1429 934 
Q 1834 422 2522 422 
Q 3209 422 3611 934 
Q 4013 1447 4013 2328 
Q 4013 3213 3611 3725 
Q 3209 4238 2522 4238 
z
M 2522 4750 
Q 3503 4750 4090 4092 
Q 4678 3434 4678 2328 
Q 4678 1225 4090 567 
Q 3503 -91 2522 -91 
Q 1538 -91 948 565 
Q 359 1222 359 2328 
Q 359 3434 948 4092 
Q 1538 4750 2522 4750 
z
" transform="scale(0.015625)"/>
      <path id="DejaVuSans-55" d="M 556 4666 
L 1191 4666 
L 1191 1831 
Q 1191 1081 1462 751 
Q 1734 422 2344 422 
Q 2950 422 3222 751 
Q 3494 1081 3494 1831 
L 3494 4666 
L 4128 4666 
L 4128 1753 
Q 4128 841 3676 375 
Q 3225 -91 2344 -91 
Q 1459 -91 1007 375 
Q 556 841 556 1753 
L 556 4666 
z
" transform="scale(0.015625)"/>
      <path id="DejaVuSans-d7" d="M 4488 3438 
L 3059 2003 
L 4488 575 
L 4116 197 
L 2681 1631 
L 1247 197 
L 878 575 
L 2303 2003 
L 878 3438 
L 1247 3816 
L 2681 2381 
L 4116 3816 
L 4488 3438 
z
" transform="scale(0.015625)"/>
     </defs>
     <use xlink:href="#DejaVuSans-43"/>
     <use xlink:href="#DejaVuSans-6f" transform="translate(69.824219 0)"/>
     <use xlink:href="#DejaVuSans-75" transform="translate(131.005859 0)"/>
     <use xlink:href="#DejaVuSans-70" transform="translate(194.384766 0)"/>
     <use xlink:href="#DejaVuSans-6c" transform="translate(257.861328 0)"/>
     <use xlink:href="#DejaVuSans-65" transform="translate(285.644531 0)"/>
     <use xlink:href="#DejaVuSans-64" transform="translate(347.167969 0)"/>
     <use xlink:href="#DejaVuSans-20" transform="translate(410.644531 0)"/>
     <use xlink:href="#DejaVuSans-4f" transform="translate(442.431641 0)"/>
     <use xlink:href="#DejaVuSans-55" transform="translate(521.142578 0)"/>
     <use xlink:href="#DejaVuSans-20" transform="translate(594.335938 0)"/>
     <use xlink:href="#DejaVuSans-63" transform="translate(626.123047 0)"/>
     <use xlink:href="#DejaVuSans-68" transform="translate(681.103516 0)"/>
     <use xlink:href="#DejaVuSans-61" transform="translate(744.482422 0)"/>
     <use xlink:href="#DejaVuSans-69" transform="translate(805.761719 0)"/>
     <use xlink:href="#DejaVuSans-6e" transform="translate(833.544922 0)"/>
     <use xlink:href="#DejaVuSans-20" transform="translate(896.923828 0)"/>
     <use xlink:href="#DejaVuSans-28" transform="translate(928.710938 0)"/>
     <use xlink:href="#DejaVuSans-34" transform="translate(967.724609 0)"/>
     <use xlink:href="#DejaVuSans-20" transform="translate(1031.347656 0)"/>
     <use xlink:href="#DejaVuSans-77" transform="translate(1063.134766 0)"/>
     <use xlink:href="#DejaVuSans-69" transform="translate(1144.921875 0)"/>
     <use xlink:href="#DejaVuSans-74" transform="translate(1172.705078 0)"/>
     <use xlink:href="#DejaVuSans-68" transform="translate(1211.914062 0)"/>
     <use xlink:href="#DejaVuSans-69" transform="translate(1275.292969 0)"/>
     <use xlink:href="#DejaVuSans-6e" transform="translate(1303.076172 0)"/>
     <use xlink:href="#DejaVuSans-2d" transform="translate(1366.455078 0)"/>
     <use xlink:href="#DejaVuSans-73" transform="translate(1402.539062 0)"/>
     <use xlink:href="#DejaVuSans-74" transform="translate(1454.638672 0)"/>
     <use xlink:href="#DejaVuSans-65" transform="translate(1493.847656 0)"/>
     <use xlink:href="#DejaVuSans-70" transform="translate(1555.371094 0)"/>
     <use xlink:href="#DejaVuSans-2d" transform="translate(1618.847656 0)"/>
     <use xlink:href="#DejaVuSans-63" transform="translate(1654.931641 0)"/>
     <use xlink:href="#DejaVuSans-6f" transform="translate(1709.912109 0)"/>
     <use xlink:href="#DejaVuSans-75" transform="translate(1771.09375 0)"/>
     <use xlink:href="#DejaVuSans-70" transform="translate(1834.472656 0)"/>
     <use xlink:href="#DejaVuSans-6c" transform="translate(1897.949219 0)"/>
     <use xlink:href="#DejaVuSans-65" transform="translate(1925.732422 0)"/>
     <use xlink:href="#DejaVuSans-64" transform="translate(1987.255859 0)"/>
     <use xlink:href="#DejaVuSans-20" transform="translate(2050.732422 0)"/>
     <use xlink:href="#DejaVuSans-63" transform="translate(2082.519531 0)"/>
     <use xlink:href="#DejaVuSans-6f" transform="translate(2137.5 0)"/>
     <use xlink:href="#DejaVuSans-6d" transform="translate(2198.681641 0)"/>
     <use xlink:href="#DejaVuSans-70" transform="translate(2296.09375 0)"/>
     <use xlink:href="#DejaVuSans-6f" transform="translate(2359.570312 0)"/>
     <use xlink:href="#DejaVuSans-6e" transform="translate(2420.751953 0)"/>
     <use xlink:href="#DejaVuSans-65" transform="translate(2484.130859 0)"/>
     <use xlink:href="#DejaVuSans-6e" transform="translate(2545.654297 0)"/>
     <use xlink:href="#DejaVuSans-74" transform="translate(2609.033203 0)"/>
     <use xlink:href="#DejaVuSans-73" transform="translate(2648.242188 0)"/>
     <use xlink:href="#DejaVuSans-29" transform="translate(2700.341797 0)"/>
     <use xlink:href="#DejaVuSans-20" transform="translate(2739.355469 0)"/>
     <use xlink:href="#DejaVuSans-2014" transform="translate(2771.142578 0)"/>
     <use xlink:href="#DejaVuSans-20" transform="translate(2871.142578 0)"/>
     <use xlink:href="#DejaVuSans-31" transform="translate(2902.929688 0)"/>
     <use xlink:href="#DejaVuSans-30" transform="translate(2966.552734 0)"/>
     <use xlink:href="#DejaVuSans-2c" transform="translate(3030.175781 0)"/>
     <use xlink:href="#DejaVuSans-30" transform="translate(3061.962891 0)"/>
     <use xlink:href="#DejaVuSans-30" transform="translate(3125.585938 0)"/>
     <use xlink:href="#DejaVuSans-30" transform="translate(3189.208984 0)"/>
     <use xlink:href="#DejaVuSans-20" transform="translate(3252.832031 0)"/>
     <use xlink:href="#DejaVuSans-70" transform="translate(3284.619141 0)"/>
     <use xlink:href="#DejaVuSans-61" transform="translate(3348.095703 0)"/>
     <use xlink:href="#DejaVuSans-74" transform="translate(3409.375 0)"/>
     <use xlink:href="#DejaVuSans-68" transform="translate(3448.583984 0)"/>
     <use xlink:href="#DejaVuSans-73" transform="translate(3511.962891 0)"/>
     <use xlink:href="#DejaVuSans-20" transform="translate(3564.0625 0)"/>
     <use xlink:href="#DejaVuSans-d7" transform="translate(3595.849609 0)"/>
     <use xlink:href="#DejaVuSans-20" transform="translate(3679.638672 0)"/>
     <use xlink:href="#DejaVuSans-32" transform="translate(3711.425781 0)"/>
     <use xlink:href="#DejaVuSans-2c" transform="translate(3775.048828 0)"/>
     <use xlink:href="#DejaVuSans-30" transform="translate(3806.835938 0)"/>
     <use xlink:href="#DejaVuSans-30" transform="translate(3870.458984 0)"/>
     <use xlink:href="#DejaVuSans-30" transform="translate(3934.082031 0)"/>
     <use xlink:href="#DejaVuSans-20" transform="translate(3997.705078 0)"/>
     <use xlink:href="#DejaVuSans-73" transform="translate(4029.492188 0)"/>
     <use xlink:href="#DejaVuSans-74" transform="translate(4081.591797 0)"/>
     <use xlink:href="#DejaVuSans-65" transform="translate(4120.800781 0)"/>
     <use xlink:href="#DejaVuSans-70" transform="translate(4182.324219 0)"/>
     <use xlink:href="#DejaVuSans-73" transform="translate(4245.800781 0)"/>
    </g>
   </g>
  </g>
 </g>
 <defs>
  <clipPath id="pce4cae6791">
   <rect x="157.3" y="26.88" width="477.264397" height="262.36"/>
  </clipPath>
 </defs>
</svg>
