<svg version="1.1" viewBox="0.0 0.0 596.0 100.0" fill="none" stroke="none" stroke-linecap="square" stroke-miterlimit="10" xmlns:xlink="http://www.w3.org/1999/xlink" xmlns="http://www.w3.org/2000/svg"><clipPath id="p.0"><path d="m0 0l596.0 0l0 100.0l-596.0 0l0 -100.0z" clip-rule="nonzero"/></clipPath><g clip-path="url(#p.0)"><path fill="#000000" fill-opacity="0.0" d="m0 0l596.0 0l0 100.0l-596.0 0z" fill-rule="evenodd"/><path fill="#000000" fill-opacity="0.0" d="m-4.3858266 -12.0l756.0 0l0 116.34646l-756.0 0z" fill-rule="evenodd"/><path fill="#000000" fill-opacity="0.0" d="m4.6141734 3.3200607l197.8398 0l0 89.19991l-197.8398 0l0 -89.19991z" fill-rule="nonzero"/><path fill="#93c47d" d="m32.457924 74.59687q-5.125 0 -9.765625 -1.59375q-4.640625 -1.609375 -8.078126 -4.484375q-3.4375 -2.875 -5.046875 -6.640625q-0.796875 -1.671875 0.046875 -3.109375q0.84375 -1.453125 2.84375 -1.84375q1.4375 -0.328125 2.828125 0.4375q1.406251 0.75 2.125001 2.28125q0.96875 2.0 3.15625 3.6875q2.203125 1.671875 5.328125 2.71875q3.125 1.03125 6.5625 1.03125q3.84375 0 7.078125 -1.203125q3.234375 -1.203125 5.234375 -3.484375q2.0 -2.28125 2.0 -5.640625q0 -4.234375 -3.328125 -7.59375q-3.3125 -3.359375 -10.90625 -4.15625q-9.921875 -0.96875 -15.609375 -5.84375q-5.671876 -4.875 -5.671876 -12.078125q0 -5.28125 2.953125 -8.953125q2.968751 -3.6875 8.046876 -5.609375q5.078125 -1.921875 11.3125 -1.921875q4.890625 0 8.53125 1.359375q3.640625 1.359375 6.359375 3.765625q2.71875 2.390625 4.71875 5.671875q1.125 1.765625 0.921875 3.328125q-0.203125 1.5625 -1.5625 2.4375q-1.515625 0.953125 -3.28125 0.40625q-1.765625 -0.5625 -2.640625 -2.078125q-1.28125 -2.328125 -3.125 -3.921875q-1.828125 -1.609375 -4.3125 -2.53125q-2.484375 -0.921875 -5.84375 -0.921875q-5.921875 -0.078125 -9.921875 2.203125q-4.0 2.28125 -4.0 7.0q0 2.40625 1.234375 4.609375q1.25 2.1875 4.5625 3.796875q3.328125 1.59375 9.5625 2.234375q9.53125 0.96875 14.84375 5.8125q5.3125 4.828125 5.3125 12.75q0 4.5625 -1.875 7.921875q-1.875 3.359375 -5.046875 5.640625q-3.15625 2.28125 -7.203125 3.40625q-4.03125 1.109375 -8.34375 1.109375zm50.480576 -0.796875q-1.765625 0 -2.96875 -1.203125q-1.203125 -1.203125 -1.203125 -2.953125l0 -58.328125l8.328125 0l0 58.328125q0 1.75 -1.203125 2.953125q-1.203125 1.203125 -2.953125 1.203125zm-21.4375 -54.796875q-1.6875 0 -2.765625 -1.078125q-1.078125 -1.078125 -1.078125 -2.765625q0 -1.671875 1.078125 -2.75q1.078125 -1.09375 2.765625 -1.09375l42.796875 0q1.671875 0 2.75 1.09375q1.09375 1.078125 1.09375 2.75q0 1.6875 -1.09375 2.765625q-1.078125 1.078125 -2.75 1.078125l-42.796875 0zm80.70806 55.59375q-7.03125 0 -12.875 -2.359375q-5.8437424 -2.359375 -10.046867 -6.640625q-4.1875 -4.28125 -6.515625 -10.15625q-2.3125 -5.875 -2.3125 -12.921875q0 -7.03125 2.3125 -12.875q2.328125 -5.84375 6.515625 -10.125q4.203125 -4.28125 10.046867 -6.640625q5.84375 -2.359375 12.875 -2.359375q7.046875 0 12.84375 2.359375q5.796875 2.359375 10.03125 6.640625q4.25 4.28125 6.5625 10.125q2.328125 5.84375 2.328125 12.875q0 7.046875 -2.328125 12.921875q-2.3125 5.875 -6.5625 10.15625q-4.234375 4.28125 -10.03125 6.640625q-5.796875 2.359375 -12.84375 2.359375zm0 -7.515625q5.203125 0 9.5625 -1.875q4.359375 -1.890625 7.5625 -5.203125q3.203125 -3.328125 4.921875 -7.796875q1.71875 -4.484375 1.71875 -9.6875q0 -5.203125 -1.71875 -9.671875q-1.71875 -4.484375 -4.921875 -7.796875q-3.203125 -3.328125 -7.5625 -5.171875q-4.359375 -1.84375 -9.5625 -1.84375q-5.1875 0 -9.5625 1.84375q-4.359375 1.84375 -7.5156174 5.171875q-3.15625 3.3125 -4.921875 7.796875q-1.75 4.46875 -1.75 9.671875q0 5.203125 1.75 9.6875q1.765625 4.46875 4.921875 7.796875q3.1562424 3.3125 7.5156174 5.203125q4.375 1.875 9.5625 1.875z" fill-rule="nonzero"/><path fill="#010000" fill-opacity="0.0" d="m202.45396 3.3200607l188.07982 0l0 89.19991l-188.07982 0l0 -89.19991z" fill-rule="nonzero"/><path fill="#93c47d" d="m238.45396 74.59687q-6.484375 0 -12.125 -2.4375q-5.640625 -2.4375 -9.84375 -6.796875q-4.1875 -4.359375 -6.546875 -10.203125q-2.359375 -5.84375 -2.359375 -12.640625q0 -6.71875 2.359375 -12.515625q2.359375 -5.796875 6.546875 -10.15625q4.203125 -4.359375 9.796875 -6.84375q5.609375 -2.484375 12.171875 -2.484375q6.15625 0 10.59375 1.609375q4.4531097 1.59375 8.92186 5.265625q0.640625 0.484375 1.0 1.015625q0.359375 0.515625 0.484375 1.03125q0.125 0.515625 0.125 1.234375q0 1.53125 -1.09375 2.53125q-1.078125 1.0 -2.59375 1.125q-1.515625 0.109375 -2.953125 -1.015625q-2.9687347 -2.5625 -6.1249847 -3.921875q-3.15625 -1.359375 -8.359375 -1.359375q-4.71875 0 -8.890625 1.921875q-4.15625 1.921875 -7.3125 5.28125q-3.15625 3.359375 -4.921875 7.8125q-1.75 4.4375 -1.75 9.46875q0 5.125 1.75 9.5625q1.765625 4.4375 4.921875 7.796875q3.15625 3.359375 7.3125 5.25q4.171875 1.875 8.890625 1.875q4.078125 0 7.71875 -1.390625q3.640625 -1.40625 6.9999847 -3.890625q1.4375 -1.046875 2.828125 -0.921875q1.40625 0.125 2.359375 1.125q0.96875 1.0 0.96875 2.75q0 0.8125 -0.328125 1.578125q-0.3125 0.75 -0.953125 1.390625q-4.3125 3.4375 -9.23436 5.203125q-4.921875 1.75 -10.359375 1.75zm38.316208 -0.796875q-1.75 0 -2.953125 -1.203125q-1.203125 -1.203125 -1.203125 -2.953125l0 -54.15625q0 -1.84375 1.203125 -3.0q1.203125 -1.171875 2.953125 -1.171875q1.84375 0 3.0 1.171875q1.15625 1.15625 1.15625 3.0l0 22.953125l37.125 0l0 -22.953125q0 -1.84375 1.203125 -3.0q1.203125 -1.171875 2.953125 -1.171875q1.84375 0 2.96875 1.171875q1.125 1.15625 1.125 3.0l0 54.15625q0 1.75 -1.125 2.953125q-1.125 1.203125 -2.96875 1.203125q-1.75 0 -2.953125 -1.203125q-1.203125 -1.203125 -1.203125 -2.953125l0 -23.84375l-37.125 0l0 23.84375q0 1.75 -1.15625 2.953125q-1.15625 1.203125 -3.0 1.203125zm63.039307 0q-2.234375 0 -3.4375 -1.921875q-1.203125 -1.921875 -0.234375 -4.078125l22.46875 -53.6875q1.203125 -2.796875 3.921875 -2.796875q2.890625 0 3.921875 2.796875l22.5625 53.84375q0.875 2.25 -0.28125 4.046875q-1.15625 1.796875 -3.484375 1.796875q-1.1875 0 -2.28125 -0.671875q-1.078125 -0.6875 -1.546875 -1.890625l-19.84375 -49.28125l2.234375 0l-20.15625 49.28125q-0.5625 1.28125 -1.640625 1.921875q-1.078125 0.640625 -2.203125 0.640625zm4.25 -13.765625l3.1875 -6.875l31.359375 0l3.203125 6.875l-37.75 0z" fill-rule="nonzero"/><path fill="#000000" fill-opacity="0.0" d="m390.53378 3.3200607l199.35983 0l0 89.19991l-199.35983 0l0 -89.19991z" fill-rule="nonzero"/><path fill="#93c47d" d="m426.13 73.799995q-1.75 0 -2.953125 -1.203125q-1.203125 -1.203125 -1.203125 -2.953125l0 -54.15625q0 -1.84375 1.203125 -3.0q1.203125 -1.171875 2.953125 -1.171875l14.484375 0q6.875 0 12.515625 2.28125q5.640625 2.28125 9.796875 6.484375q4.171875 4.203125 6.40625 9.890625q2.234375 5.671875 2.234375 12.546875q0 6.875 -2.234375 12.609375q-2.234375 5.71875 -6.40625 9.921875q-4.15625 4.1875 -9.796875 6.46875q-5.640625 2.28125 -12.515625 2.28125l-14.484375 0zm4.15625 -7.359375l10.328125 0q6.71875 0 11.875 -3.078125q5.171875 -3.078125 8.125 -8.46875q2.953125 -5.40625 2.953125 -12.375q0 -7.03125 -2.953125 -12.390625q-2.953125 -5.375 -8.125 -8.40625q-5.15625 -3.046875 -11.875 -3.046875l-10.328125 0l0 47.765625zm58.483673 7.359375q-1.75 0 -2.953125 -1.203125q-1.203125 -1.203125 -1.203125 -2.953125l0 -54.15625q0 -1.84375 1.203125 -3.0q1.203125 -1.171875 2.953125 -1.171875l36.15628 0q1.84375 0 2.96875 1.09375q1.125 1.078125 1.125 2.828125q0 1.6875 -1.125 2.734375q-1.125 1.03125 -2.96875 1.03125l-32.00003 0l0 19.4375l22.96878 0q1.84375 0 2.953125 1.078125q1.125 1.078125 1.125 2.765625q0 1.671875 -1.125 2.75q-1.109375 1.078125 -2.953125 1.078125l-22.96878 0l0 20.0l32.00003 0q1.84375 0 2.96875 1.046875q1.125 1.046875 1.125 2.71875q0 1.765625 -1.125 2.84375q-1.125 1.078125 -2.96875 1.078125l-36.15628 0zm51.609406 0q-1.84375 0 -2.8125 -1.15625q-0.953125 -1.15625 -0.953125 -2.71875q0 -1.5625 0.953125 -2.84375l20.171875 -26.875l3.59375 -3.203125l18.40625 -24.484375q1.109375 -1.203125 2.953125 -1.203125q1.6875 0 2.640625 1.046875q0.96875 1.03125 1.046875 2.5625q0.078125 1.515625 -0.890625 2.953125l-19.4375 25.921875l-3.4375 3.046875l-19.359375 25.75q-1.203125 1.203125 -2.875 1.203125zm41.828125 0q-1.03125 0 -1.796875 -0.359375q-0.75 -0.359375 -1.390625 -1.15625l-18.640625 -25.84375l-2.96875 -2.484375l-18.796875 -26.078125q-0.953125 -1.28125 -0.796875 -2.796875q0.15625 -1.515625 1.15625 -2.640625q1.0 -1.125 2.6875 -1.125q2.078125 0 2.953125 1.203125l17.765625 24.640625l3.03125 2.484375l19.765625 27.4375q0.953125 1.28125 0.875 2.890625q-0.078125 1.59375 -1.078125 2.71875q-1.0 1.109375 -2.765625 1.109375z" fill-rule="nonzero"/><path fill="#000000" fill-opacity="0.0" d="m589.8936 3.3200607l0 0l0 89.19991l0 0l0 -89.19991z" fill-rule="nonzero"/><path fill="#93c47d" d="m4.6141734 78.99999l585.2794 0l0 7.2000046l-585.2794 0l0 -7.2000046z" fill-rule="nonzero"/><path fill="#93c47d" d="m184.5328 46.17323l0 0c0 -2.9571152 2.3972168 -5.354332 5.3543396 -5.354332l0 0c1.420044 0 2.781952 0.56411743 3.7860718 1.5682487c1.0041351 1.0041313 1.5682526 2.366024 1.5682526 3.7860832l0 0c0 2.9571152 -2.3972168 5.354328 -5.3543243 5.354328l0 0c-2.9571228 0 -5.3543396 -2.397213 -5.3543396 -5.354328z" fill-rule="evenodd"/><path fill="#93c47d" d="m398.58267 46.17323l0 0c0 -2.9571152 2.3972168 -5.354332 5.3543396 -5.354332l0 0c1.420044 0 2.781952 0.56411743 3.7860718 1.5682487c1.0041504 1.0041313 1.5682678 2.366024 1.5682678 3.7860832l0 0c0 2.9571152 -2.3972168 5.354328 -5.3543396 5.354328l0 0c-2.9571228 0 -5.3543396 -2.397213 -5.3543396 -5.354328z" fill-rule="evenodd"/></g></svg>